<svg>
    <symbol id="lock-close" width="24" height="24" viewBox="0 0 24 24" fill="none" xmlns="http://www.w3.org/2000/svg">
        <path d="M8.5 7.5V6.5C8.5 4.567 10.067 3 12 3V3C13.933 3 15.5 4.567 15.5 6.5V7.5" stroke="#19191C" stroke-width="1.5" stroke-linecap="round"/>
        <path d="M4.74926 9.8141C4.83974 8.96656 5.62072 8.29883 6.59873 8.22578C10.619 7.92549 13.4104 7.92461 17.3984 8.22393C18.3812 8.29769 19.1632 8.97213 19.2502 9.82416C19.6012 13.2631 19.5688 15.6912 19.2378 19.1589C19.1555 20.0204 18.3682 20.7066 17.3748 20.7796C13.375 21.0736 10.587 21.0729 6.63823 20.781C5.6424 20.7074 4.8551 20.0176 4.77375 19.1539C4.45047 15.7212 4.37852 13.2871 4.74926 9.8141Z" stroke="#19191C" stroke-width="1.5"/>
        <path d="M12 15.75C13.1046 15.75 14 14.8546 14 13.75C14 12.6454 13.1046 11.75 12 11.75C10.8954 11.75 10 12.6454 10 13.75C10 14.8546 10.8954 15.75 12 15.75ZM12 15.75V17.25" stroke="#19191C" stroke-width="1.5" stroke-linecap="round"/>
    </symbol>

    <symbol id="user" width="24" height="24" viewBox="0 0 24 24" fill="none" xmlns="http://www.w3.org/2000/svg">
        <path d="M15.4999 6.5C15.4999 8.433 13.9329 10 11.9999 10C10.0669 10 8.49993 8.433 8.49993 6.5C8.49993 4.567 10.0669 3 11.9999 3C13.9329 3 15.4999 4.567 15.4999 6.5Z" stroke="#19191C" stroke-width="1.5"/>
        <path d="M5.42407 17.4898C5.76687 15.1147 7.6056 13.1739 9.99892 12.9995C11.3663 12.8999 12.6383 12.8997 14.0031 12.999C16.3954 13.1729 18.2328 15.1137 18.5755 17.4878L18.6421 17.9495C18.8396 19.3178 17.8891 20.595 16.5145 20.7424C13.2884 21.0883 10.722 21.0843 7.49114 20.7397C6.11438 20.5928 5.16069 19.3146 5.35848 17.9442L5.42407 17.4898Z" stroke="#19191C" stroke-width="1.5"/>
    </symbol>

    <symbol id="logo" width="151" height="58" viewBox="0 0 151 58" fill="none" xmlns="http://www.w3.org/2000/svg">
        <path d="M61.9487 28.306C61.9487 25.8875 62.4713 23.7364 63.5165 21.8527C64.5617 19.9458 66.0133 18.4692 67.8713 17.4227C69.7527 16.353 71.8778 15.8181 74.2469 15.8181C77.1501 15.8181 79.6353 16.5855 81.7024 18.1203C83.7695 19.6552 85.1515 21.7481 85.8482 24.3991H79.2985C78.8108 23.3759 78.114 22.5969 77.2082 22.062C76.3256 21.5272 75.3153 21.2597 74.1772 21.2597C72.3423 21.2597 70.8559 21.8993 69.7178 23.1783C68.5797 24.4573 68.0107 26.1665 68.0107 28.306C68.0107 30.4454 68.5797 32.1546 69.7178 33.4337C70.8559 34.7127 72.3423 35.3522 74.1772 35.3522C75.3153 35.3522 76.3256 35.0847 77.2082 34.5499C78.114 34.015 78.8108 33.236 79.2985 32.2128H85.8482C85.1515 34.8638 83.7695 36.9568 81.7024 38.4916C79.6353 40.0031 77.1501 40.7589 74.2469 40.7589C71.8778 40.7589 69.7527 40.2357 67.8713 39.1892C66.0133 38.1195 64.5617 36.6428 63.5165 34.7592C62.4713 32.8755 61.9487 30.7245 61.9487 28.306Z" fill="#19191C"/>
        <path d="M96.2553 40.8636C94.3507 40.8636 92.632 40.4566 91.0991 39.6427C89.5894 38.8288 88.3933 37.666 87.5107 36.1545C86.6513 34.6429 86.2217 32.8755 86.2217 30.8524C86.2217 28.8524 86.663 27.0967 87.5455 25.5851C88.4281 24.0503 89.6359 22.876 91.1688 22.062C92.7017 21.2481 94.4204 20.8412 96.325 20.8412C98.2295 20.8412 99.9482 21.2481 101.481 22.062C103.014 22.876 104.222 24.0503 105.104 25.5851C105.987 27.0967 106.428 28.8524 106.428 30.8524C106.428 32.8523 105.975 34.6196 105.07 36.1545C104.187 37.666 102.968 38.8288 101.411 39.6427C99.8785 40.4566 98.1598 40.8636 96.2553 40.8636ZM96.2553 35.701C97.3933 35.701 98.3572 35.2824 99.1469 34.4452C99.9598 33.6081 100.366 32.4104 100.366 30.8524C100.366 29.2943 99.9714 28.0967 99.1817 27.2595C98.4153 26.4223 97.463 26.0037 96.325 26.0037C95.1637 26.0037 94.1998 26.4223 93.4333 27.2595C92.6669 28.0734 92.2836 29.271 92.2836 30.8524C92.2836 32.4104 92.6553 33.6081 93.3985 34.4452C94.1649 35.2824 95.1172 35.701 96.2553 35.701Z" fill="#19191C"/>
        <path d="M106.314 30.8524C106.314 28.8292 106.72 27.0618 107.533 25.5503C108.369 24.0387 109.519 22.876 110.982 22.062C112.469 21.2481 114.164 20.8412 116.069 20.8412C118.508 20.8412 120.54 21.4807 122.166 22.7597C123.815 24.0387 124.895 25.8409 125.406 28.1664H119.065C118.531 26.6781 117.497 25.934 115.964 25.934C114.873 25.934 114.002 26.3642 113.351 27.2246C112.701 28.0618 112.376 29.271 112.376 30.8524C112.376 32.4337 112.701 33.6546 113.351 34.515C114.002 35.3522 114.873 35.7708 115.964 35.7708C117.497 35.7708 118.531 35.0266 119.065 33.5383H125.406C124.895 35.8173 123.815 37.6079 122.166 38.9102C120.517 40.2124 118.484 40.8636 116.069 40.8636C114.164 40.8636 112.469 40.4566 110.982 39.6427C109.519 38.8288 108.369 37.666 107.533 36.1545C106.72 34.6429 106.314 32.8755 106.314 30.8524Z" fill="#19191C"/>
        <path d="M125.317 30.8175C125.317 28.8176 125.689 27.0618 126.432 25.5503C127.199 24.0387 128.232 22.876 129.533 22.062C130.834 21.2481 132.285 20.8412 133.888 20.8412C135.258 20.8412 136.454 21.1202 137.476 21.6783C138.521 22.2364 139.323 22.969 139.88 23.8759V21.1202H145.838V40.5845H139.88V37.8288C139.3 38.7358 138.487 39.4683 137.441 40.0264C136.419 40.5845 135.223 40.8636 133.853 40.8636C132.274 40.8636 130.834 40.4566 129.533 39.6427C128.232 38.8055 127.199 37.6311 126.432 36.1196C125.689 34.5848 125.317 32.8174 125.317 30.8175ZM139.88 30.8524C139.88 29.3641 139.462 28.1897 138.626 27.3293C137.813 26.4688 136.814 26.0386 135.63 26.0386C134.445 26.0386 133.435 26.4688 132.599 27.3293C131.786 28.1664 131.379 29.3292 131.379 30.8175C131.379 32.3058 131.786 33.4918 132.599 34.3755C133.435 35.2359 134.445 35.6661 135.63 35.6661C136.814 35.6661 137.813 35.2359 138.626 34.3755C139.462 33.515 139.88 32.3407 139.88 30.8524Z" fill="#19191C"/>
        <path d="M49.706 19.605C48.8344 17.569 47.681 15.6715 46.2807 13.9709C44.211 11.3819 41.6281 9.27007 38.7019 7.77443C35.7757 6.2788 32.5726 5.43324 29.3035 5.29342C26.0345 5.1536 22.7735 5.72268 19.7351 6.96324C16.6969 8.20377 13.9502 10.0876 11.6759 12.4909C9.40154 14.894 7.65116 17.7621 6.53993 20.9063C5.42869 24.0503 4.98179 27.3993 5.22864 30.7325C5.47552 34.0659 6.41052 37.308 7.97216 40.2454C9.53379 43.183 11.6866 45.7494 14.289 47.7755C15.9588 49.1016 17.8039 50.1797 19.7694 50.9775C22.525 52.1313 25.4743 52.7255 28.4524 52.7272C34.5996 52.7134 40.4907 50.2099 44.8344 45.7656C49.178 41.3213 51.6197 35.299 51.6241 29.0185C51.6286 25.7789 50.9755 22.5736 49.706 19.605ZM28.4352 10.104C31.1097 10.1037 33.7517 10.7009 36.1763 11.8537C35.5851 12.1147 34.9634 12.297 34.3266 12.3961C32.2314 12.706 30.2905 13.6998 28.7935 15.2292C27.2965 16.7587 26.3237 18.7417 26.0204 20.8823C25.8874 22.0828 25.3529 23.1996 24.5073 24.0444C23.6618 24.8892 22.557 25.4099 21.3792 25.5191C19.284 25.8289 17.3431 26.8228 15.8461 28.3522C14.3491 29.8816 13.3763 31.8646 13.073 34.0052C12.9704 35.1467 12.4936 36.2195 11.7201 37.0497C10.3853 34.1685 9.78575 30.9889 9.97709 27.8072C10.1684 24.6255 11.1445 21.5449 12.8144 18.8521C14.4843 16.1594 16.7938 13.942 19.5281 12.4064C22.2623 10.8707 25.3323 10.0666 28.4524 10.069L28.4352 10.104ZM14.2719 41.2666C14.4774 41.0741 14.6829 40.8991 14.8884 40.6892C16.4121 39.18 17.3901 37.1878 17.6629 35.0376C17.7735 33.8288 18.3017 32.6999 19.1528 31.8531C19.972 30.982 21.0744 30.4468 22.2527 30.3483C24.3479 30.0384 26.2888 29.0446 27.7858 27.5151C29.2828 25.9857 30.2556 24.0028 30.5589 21.8621C30.633 20.598 31.164 19.4069 32.0489 18.5202C32.8882 17.666 34.0011 17.1503 35.183 17.0679C37.1078 16.7973 38.9029 15.9231 40.3208 14.5658C41.9353 15.9342 43.303 17.5804 44.3626 19.43C44.2975 19.5198 44.2229 19.602 44.14 19.675C43.3225 20.5537 42.2215 21.1007 41.0401 21.2147C38.9427 21.5192 36.9988 22.5113 35.5008 24.0416C34.003 25.5721 33.0319 27.558 32.7339 29.7009C32.6132 30.9054 32.0886 32.0303 31.2491 32.8849C30.4094 33.7396 29.3064 34.2714 28.127 34.3902C26.0256 34.6976 24.0775 35.6895 22.5717 37.2182C21.0662 38.7471 20.0833 40.7313 19.7694 42.8763C19.6772 43.7314 19.3897 44.5525 18.9302 45.2734C17.173 44.2075 15.5993 42.8539 14.2719 41.2666ZM28.4352 48.0205C26.6974 48.0224 24.9679 47.775 23.2974 47.2856C23.8689 46.1973 24.2403 45.0111 24.3934 43.7862C24.5135 42.5843 25.0357 41.4615 25.8718 40.6073C26.7079 39.7531 27.8069 39.2196 28.9833 39.0969C31.0816 38.7905 33.0264 37.7983 34.5269 36.2685C36.0271 34.7389 37.0024 32.7538 37.3066 30.6108C37.4267 29.4089 37.9488 28.2861 38.7849 27.4319C39.621 26.5776 40.72 26.0442 41.8964 25.9215C43.4755 25.7117 44.9805 25.111 46.2807 24.1718C47.0028 26.9677 47.0882 29.8953 46.5308 32.7302C45.9733 35.5651 44.7875 38.232 43.0646 40.5261C41.3417 42.82 39.1275 44.6805 36.5914 45.9644C34.0555 47.2483 31.2655 47.9218 28.4352 47.933V48.0205Z" fill="#FF5C00"/>
    </symbol>
</svg>