<svg>
    <symbol id="lock-close" width="24" height="24" viewBox="0 0 24 24" fill="none" xmlns="http://www.w3.org/2000/svg">
        <path d="M8.5 7.5V6.5C8.5 4.567 10.067 3 12 3V3C13.933 3 15.5 4.567 15.5 6.5V7.5" stroke="#19191C" stroke-width="1.5" stroke-linecap="round"/>
        <path d="M4.74926 9.8141C4.83974 8.96656 5.62072 8.29883 6.59873 8.22578C10.619 7.92549 13.4104 7.92461 17.3984 8.22393C18.3812 8.29769 19.1632 8.97213 19.2502 9.82416C19.6012 13.2631 19.5688 15.6912 19.2378 19.1589C19.1555 20.0204 18.3682 20.7066 17.3748 20.7796C13.375 21.0736 10.587 21.0729 6.63823 20.781C5.6424 20.7074 4.8551 20.0176 4.77375 19.1539C4.45047 15.7212 4.37852 13.2871 4.74926 9.8141Z" stroke="#19191C" stroke-width="1.5"/>
        <path d="M12 15.75C13.1046 15.75 14 14.8546 14 13.75C14 12.6454 13.1046 11.75 12 11.75C10.8954 11.75 10 12.6454 10 13.75C10 14.8546 10.8954 15.75 12 15.75ZM12 15.75V17.25" stroke="#19191C" stroke-width="1.5" stroke-linecap="round"/>
    </symbol>

    <symbol id="user" width="24" height="24" viewBox="0 0 24 24" fill="none" xmlns="http://www.w3.org/2000/svg">
        <path d="M15.4999 6.5C15.4999 8.433 13.9329 10 11.9999 10C10.0669 10 8.49993 8.433 8.49993 6.5C8.49993 4.567 10.0669 3 11.9999 3C13.9329 3 15.4999 4.567 15.4999 6.5Z" stroke="#19191C" stroke-width="1.5"/>
        <path d="M5.42407 17.4898C5.76687 15.1147 7.6056 13.1739 9.99892 12.9995C11.3663 12.8999 12.6383 12.8997 14.0031 12.999C16.3954 13.1729 18.2328 15.1137 18.5755 17.4878L18.6421 17.9495C18.8396 19.3178 17.8891 20.595 16.5145 20.7424C13.2884 21.0883 10.722 21.0843 7.49114 20.7397C6.11438 20.5928 5.16069 19.3146 5.35848 17.9442L5.42407 17.4898Z" stroke="#19191C" stroke-width="1.5"/>
    </symbol>

    <symbol id="logo" width="151" height="58" viewBox="0 0 151 58" fill="none" xmlns="http://www.w3.org/2000/svg">
        <path d="M61.9487 28.306C61.9487 25.8875 62.4713 23.7364 63.5165 21.8527C64.5617 19.9458 66.0133 18.4692 67.8713 17.4227C69.7527 16.353 71.8778 15.8181 74.2469 15.8181C77.1501 15.8181 79.6353 16.5855 81.7024 18.1203C83.7695 19.6552 85.1515 21.7481 85.8482 24.3991H79.2985C78.8108 23.3759 78.114 22.5969 77.2082 22.062C76.3256 21.5272 75.3153 21.2597 74.1772 21.2597C72.3423 21.2597 70.8559 21.8993 69.7178 23.1783C68.5797 24.4573 68.0107 26.1665 68.0107 28.306C68.0107 30.4454 68.5797 32.1546 69.7178 33.4337C70.8559 34.7127 72.3423 35.3522 74.1772 35.3522C75.3153 35.3522 76.3256 35.0847 77.2082 34.5499C78.114 34.015 78.8108 33.236 79.2985 32.2128H85.8482C85.1515 34.8638 83.7695 36.9568 81.7024 38.4916C79.6353 40.0031 77.1501 40.7589 74.2469 40.7589C71.8778 40.7589 69.7527 40.2357 67.8713 39.1892C66.0133 38.1195 64.5617 36.6428 63.5165 34.7592C62.4713 32.8755 61.9487 30.7245 61.9487 28.306Z" fill="#19191C"/>
        <path d="M96.2553 40.8636C94.3507 40.8636 92.632 40.4566 91.0991 39.6427C89.5894 38.8288 88.3933 37.666 87.5107 36.1545C86.6513 34.6429 86.2217 32.8755 86.2217 30.8524C86.2217 28.8524 86.663 27.0967 87.5455 25.5851C88.4281 24.0503 89.6359 22.876 91.1688 22.062C92.7017 21.2481 94.4204 20.8412 96.325 20.8412C98.2295 20.8412 99.9482 21.2481 101.481 22.062C103.014 22.876 104.222 24.0503 105.104 25.5851C105.987 27.0967 106.428 28.8524 106.428 30.8524C106.428 32.8523 105.975 34.6196 105.07 36.1545C104.187 37.666 102.968 38.8288 101.411 39.6427C99.8785 40.4566 98.1598 40.8636 96.2553 40.8636ZM96.2553 35.701C97.3933 35.701 98.3572 35.2824 99.1469 34.4452C99.9598 33.6081 100.366 32.4104 100.366 30.8524C100.366 29.2943 99.9714 28.0967 99.1817 27.2595C98.4153 26.4223 97.463 26.0037 96.325 26.0037C95.1637 26.0037 94.1998 26.4223 93.4333 27.2595C92.6669 28.0734 92.2836 29.271 92.2836 30.8524C92.2836 32.4104 92.6553 33.6081 93.3985 34.4452C94.1649 35.2824 95.1172 35.701 96.2553 35.701Z" fill="#19191C"/>
        <path d="M106.314 30.8524C106.314 28.8292 106.72 27.0618 107.533 25.5503C108.369 24.0387 109.519 22.876 110.982 22.062C112.469 21.2481 114.164 20.8412 116.069 20.8412C118.508 20.8412 120.54 21.4807 122.166 22.7597C123.815 24.0387 124.895 25.8409 125.406 28.1664H119.065C118.531 26.6781 117.497 25.934 115.964 25.934C114.873 25.934 114.002 26.3642 113.351 27.2246C112.701 28.0618 112.376 29.271 112.376 30.8524C112.376 32.4337 112.701 33.6546 113.351 34.515C114.002 35.3522 114.873 35.7708 115.964 35.7708C117.497 35.7708 118.531 35.0266 119.065 33.5383H125.406C124.895 35.8173 123.815 37.6079 122.166 38.9102C120.517 40.2124 118.484 40.8636 116.069 40.8636C114.164 40.8636 112.469 40.4566 110.982 39.6427C109.519 38.8288 108.369 37.666 107.533 36.1545C106.72 34.6429 106.314 32.8755 106.314 30.8524Z" fill="#19191C"/>
        <path d="M125.317 30.8175C125.317 28.8176 125.689 27.0618 126.432 25.5503C127.199 24.0387 128.232 22.876 129.533 22.062C130.834 21.2481 132.285 20.8412 133.888 20.8412C135.258 20.8412 136.454 21.1202 137.476 21.6783C138.521 22.2364 139.323 22.969 139.88 23.8759V21.1202H145.838V40.5845H139.88V37.8288C139.3 38.7358 138.487 39.4683 137.441 40.0264C136.419 40.5845 135.223 40.8636 133.853 40.8636C132.274 40.8636 130.834 40.4566 129.533 39.6427C128.232 38.8055 127.199 37.6311 126.432 36.1196C125.689 34.5848 125.317 32.8174 125.317 30.8175ZM139.88 30.8524C139.88 29.3641 139.462 28.1897 138.626 27.3293C137.813 26.4688 136.814 26.0386 135.63 26.0386C134.445 26.0386 133.435 26.4688 132.599 27.3293C131.786 28.1664 131.379 29.3292 131.379 30.8175C131.379 32.3058 131.786 33.4918 132.599 34.3755C133.435 35.2359 134.445 35.6661 135.63 35.6661C136.814 35.6661 137.813 35.2359 138.626 34.3755C139.462 33.515 139.88 32.3407 139.88 30.8524Z" fill="#19191C"/>
        <path d="M49.706 19.605C48.8344 17.569 47.681 15.6715 46.2807 13.9709C44.211 11.3819 41.6281 9.27007 38.7019 7.77443C35.7757 6.2788 32.5726 5.43324 29.3035 5.29342C26.0345 5.1536 22.7735 5.72268 19.7351 6.96324C16.6969 8.20377 13.9502 10.0876 11.6759 12.4909C9.40154 14.894 7.65116 17.7621 6.53993 20.9063C5.42869 24.0503 4.98179 27.3993 5.22864 30.7325C5.47552 34.0659 6.41052 37.308 7.97216 40.2454C9.53379 43.183 11.6866 45.7494 14.289 47.7755C15.9588 49.1016 17.8039 50.1797 19.7694 50.9775C22.525 52.1313 25.4743 52.7255 28.4524 52.7272C34.5996 52.7134 40.4907 50.2099 44.8344 45.7656C49.178 41.3213 51.6197 35.299 51.6241 29.0185C51.6286 25.7789 50.9755 22.5736 49.706 19.605ZM28.4352 10.104C31.1097 10.1037 33.7517 10.7009 36.1763 11.8537C35.5851 12.1147 34.9634 12.297 34.3266 12.3961C32.2314 12.706 30.2905 13.6998 28.7935 15.2292C27.2965 16.7587 26.3237 18.7417 26.0204 20.8823C25.8874 22.0828 25.3529 23.1996 24.5073 24.0444C23.6618 24.8892 22.557 25.4099 21.3792 25.5191C19.284 25.8289 17.3431 26.8228 15.8461 28.3522C14.3491 29.8816 13.3763 31.8646 13.073 34.0052C12.9704 35.1467 12.4936 36.2195 11.7201 37.0497C10.3853 34.1685 9.78575 30.9889 9.97709 27.8072C10.1684 24.6255 11.1445 21.5449 12.8144 18.8521C14.4843 16.1594 16.7938 13.942 19.5281 12.4064C22.2623 10.8707 25.3323 10.0666 28.4524 10.069L28.4352 10.104ZM14.2719 41.2666C14.4774 41.0741 14.6829 40.8991 14.8884 40.6892C16.4121 39.18 17.3901 37.1878 17.6629 35.0376C17.7735 33.8288 18.3017 32.6999 19.1528 31.8531C19.972 30.982 21.0744 30.4468 22.2527 30.3483C24.3479 30.0384 26.2888 29.0446 27.7858 27.5151C29.2828 25.9857 30.2556 24.0028 30.5589 21.8621C30.633 20.598 31.164 19.4069 32.0489 18.5202C32.8882 17.666 34.0011 17.1503 35.183 17.0679C37.1078 16.7973 38.9029 15.9231 40.3208 14.5658C41.9353 15.9342 43.303 17.5804 44.3626 19.43C44.2975 19.5198 44.2229 19.602 44.14 19.675C43.3225 20.5537 42.2215 21.1007 41.0401 21.2147C38.9427 21.5192 36.9988 22.5113 35.5008 24.0416C34.003 25.5721 33.0319 27.558 32.7339 29.7009C32.6132 30.9054 32.0886 32.0303 31.2491 32.8849C30.4094 33.7396 29.3064 34.2714 28.127 34.3902C26.0256 34.6976 24.0775 35.6895 22.5717 37.2182C21.0662 38.7471 20.0833 40.7313 19.7694 42.8763C19.6772 43.7314 19.3897 44.5525 18.9302 45.2734C17.173 44.2075 15.5993 42.8539 14.2719 41.2666ZM28.4352 48.0205C26.6974 48.0224 24.9679 47.775 23.2974 47.2856C23.8689 46.1973 24.2403 45.0111 24.3934 43.7862C24.5135 42.5843 25.0357 41.4615 25.8718 40.6073C26.7079 39.7531 27.8069 39.2196 28.9833 39.0969C31.0816 38.7905 33.0264 37.7983 34.5269 36.2685C36.0271 34.7389 37.0024 32.7538 37.3066 30.6108C37.4267 29.4089 37.9488 28.2861 38.7849 27.4319C39.621 26.5776 40.72 26.0442 41.8964 25.9215C43.4755 25.7117 44.9805 25.111 46.2807 24.1718C47.0028 26.9677 47.0882 29.8953 46.5308 32.7302C45.9733 35.5651 44.7875 38.232 43.0646 40.5261C41.3417 42.82 39.1275 44.6805 36.5914 45.9644C34.0555 47.2483 31.2655 47.9218 28.4352 47.933V48.0205Z" fill="#FF5C00"/>
    </symbol>

    <symbol id="logo-without-text" width="36" height="36" viewBox="0 0 36 36" fill="none" xmlns="http://www.w3.org/2000/svg">
        <path d="M34.5137 10.8728C33.8384 9.32819 32.9447 7.88874 31.8597 6.59863C30.2561 4.63456 28.2547 3.03248 25.9874 1.89786C23.7201 0.763243 21.2382 0.121789 18.7052 0.015718C16.1723 -0.0903526 13.6455 0.341363 11.2913 1.28247C8.93716 2.22357 6.80892 3.65271 5.04671 5.47584C3.28448 7.29895 1.92822 9.47472 1.0672 11.8599C0.20618 14.2451 -0.1401 16.7857 0.0511737 19.3144C0.24246 21.8431 0.966934 24.3026 2.17694 26.531C3.38695 28.7596 5.05506 30.7064 7.07145 32.2435C8.36528 33.2495 9.79492 34.0673 11.3178 34.6726C13.453 35.5479 15.7382 35.9987 18.0457 36C22.8088 35.9895 27.3734 34.0903 30.7391 30.7188C34.1046 27.3472 35.9965 22.7785 36 18.0141C36.0034 15.5564 35.4974 13.1248 34.5137 10.8728ZM18.0324 3.66511C20.1047 3.6649 22.1518 4.11793 24.0305 4.99249C23.5724 5.19049 23.0907 5.32879 22.5973 5.40399C20.9739 5.63905 19.47 6.39298 18.31 7.55323C17.1501 8.71348 16.3964 10.2178 16.1614 11.8418C16.0583 12.7525 15.6441 13.5997 14.989 14.2406C14.3338 14.8815 13.4778 15.2765 12.5652 15.3593C10.9418 15.5944 9.43783 16.3483 8.27792 17.5086C7.118 18.6689 6.36428 20.1732 6.12929 21.7971C6.04972 22.6631 5.68035 23.4769 5.08096 24.1067C4.04676 21.9209 3.58218 19.5088 3.73043 17.0951C3.87868 14.6814 4.63495 12.3444 5.92887 10.3016C7.22277 8.25889 9.01228 6.57674 11.1309 5.41174C13.2494 4.24674 15.6282 3.63677 18.0457 3.63856L18.0324 3.66511ZM7.05818 27.3057C7.21742 27.1597 7.37666 27.0269 7.5359 26.8677C8.71647 25.7228 9.47426 24.2114 9.68564 22.5802C9.77134 21.6633 10.1806 20.8069 10.8401 20.1644C11.4748 19.5036 12.329 19.0976 13.242 19.0229C14.8654 18.7878 16.3693 18.0338 17.5292 16.8736C18.6892 15.7133 19.4429 14.209 19.6779 12.5851C19.7354 11.6261 20.1467 10.7225 20.8324 10.0498C21.4828 9.40184 22.345 9.0106 23.2608 8.94807C24.7522 8.74282 26.1432 8.07959 27.2418 7.04993C28.4928 8.08803 29.5525 9.33686 30.3735 10.74C30.3231 10.8081 30.2652 10.8705 30.201 10.9259C29.5676 11.5925 28.7145 12.0074 27.7991 12.094C26.174 12.3249 24.6678 13.0775 23.5071 14.2385C22.3465 15.3995 21.5941 16.9061 21.3632 18.5317C21.2696 19.4455 20.8632 20.2989 20.2127 20.9472C19.5621 21.5956 18.7075 21.999 17.7936 22.0891C16.1654 22.3223 14.6559 23.0748 13.4892 24.2345C12.3226 25.3944 11.5611 26.8996 11.3178 28.5269C11.2464 29.1756 11.0236 29.7985 10.6676 30.3454C9.3061 29.5367 8.08673 28.5099 7.05818 27.3057ZM18.0324 32.4294C16.6859 32.4308 15.3458 32.2431 14.0514 31.8719C14.4943 31.0462 14.7821 30.1464 14.9007 29.2171C14.9937 28.3053 15.3983 27.4536 16.0462 26.8055C16.694 26.1575 17.5456 25.7528 18.4571 25.6597C20.0829 25.4273 21.5899 24.6746 22.7524 23.514C23.9149 22.3536 24.6706 20.8477 24.9063 19.222C24.9993 18.3102 25.4039 17.4584 26.0518 16.8104C26.6996 16.1624 27.5511 15.7577 28.4626 15.6646C29.6861 15.5054 30.8523 15.0498 31.8597 14.3372C32.4192 16.4582 32.4854 18.6792 32.0535 20.8298C31.6216 22.9804 30.7027 25.0036 29.3678 26.7439C28.0328 28.4841 26.3171 29.8955 24.3521 30.8696C22.3872 31.8436 20.2254 32.3545 18.0324 32.363V32.4294Z" fill="#FF5C00"/>
    </symbol>


    <g id="arrow-left"  fill="none" xmlns="http://www.w3.org/2000/svg">
        <path d="M7.91664 5.41663L3.45116 9.88211C3.38607 9.9472 3.38607 10.0527 3.45116 10.1178L7.91664 14.5833M3.40234 9.99996H16.6666" stroke="#19191C" stroke-width="1.5" stroke-linecap="round"/>
    </g>

    <symbol id="home" width="24" height="24" viewBox="0 0 24 24" fill="none" xmlns="http://www.w3.org/2000/svg">
        <path d="M3.95353 8.61072L10.4175 3.54689C11.3483 2.8177 12.6517 2.8177 13.5825 3.54689L20.0465 8.61072C20.7843 9.18877 20.9893 10.0491 20.9996 11.0435C21.0001 11.0974 20.9984 11.1495 20.9943 11.2033C20.9525 11.7548 20.6634 15.1249 19.5949 18.9084C19.2173 19.9615 18.3289 21 17.1067 21H15.918C15.1777 21 14.4713 20.3956 14.4713 19.65L14.5776 16.846C14.5776 15.4122 13.4236 14.2498 12 14.2498C10.5764 14.2498 9.42239 15.4122 9.42239 16.846L9.54168 19.65C9.54168 20.3956 8.82229 21 8.08203 21H6.89335C5.6711 21 4.78269 19.9615 4.40511 18.9084C3.33663 15.1249 3.0475 11.7548 3.00568 11.2033C3.0016 11.1495 2.99986 11.0974 3.00041 11.0435C3.01068 10.0491 3.21566 9.18877 3.95353 8.61072Z" fill="currentColor"/>
    </symbol>

    <symbol id="note" width="24" height="24" viewBox="0 0 24 24" fill="none" xmlns="http://www.w3.org/2000/svg">
        <path d="M14 20.9617C11.4757 21.0582 9.16166 20.9724 6.23865 20.7048C5.19543 20.6092 4.36239 19.736 4.26588 18.6277C3.87042 14.0861 3.94716 10.903 4.292 6.41419C4.37877 5.28469 5.21856 4.38258 6.28078 4.28634C10.4928 3.90469 13.4667 3.9038 17.7331 4.28821C18.7928 4.38368 19.6326 5.28098 19.7203 6.4076C19.9822 9.77112 20.0688 12.3867 19.9433 15.3485M14 20.9617L19.9433 15.3485M14 20.9617V17.8485C14 16.4678 15.1193 15.3485 16.5 15.3485H19.9433M8 3V5.5M16 3V5.5" stroke="currentColor" stroke-width="1.5" stroke-linecap="round"/>
        <path d="M8 9.5H16" stroke="currentColor" stroke-width="1.5" stroke-linecap="round"/>
        <path d="M8 13H13" stroke="currentColor" stroke-width="1.5" stroke-linecap="round"/>
    </symbol>

    <symbol id="clock" width="24" height="24" viewBox="0 0 24 24" fill="none" xmlns="http://www.w3.org/2000/svg">
        <circle cx="12" cy="12" r="9" stroke="currentColor" stroke-width="1.5"/>
        <path d="M12 6.5V11.9586C12 11.9851 11.9895 12.0105 11.9707 12.0293L9 15" stroke="currentColor" stroke-width="1.5" stroke-linecap="round"/>
    </symbol>

    <symbol id="receipt" width="24" height="24" viewBox="0 0 24 24" fill="none" xmlns="http://www.w3.org/2000/svg">
        <path d="M18.5 3C19.4665 3 20.5 3.5 20.5 4.78736V9.10674C20.5 9.38877 20.2761 9.61741 20 9.61741H17M18.5 3C17.5335 3 17 3.80023 17 4.78736V9.61741M18.5 3H6C4.61929 3 3.5 4.14318 3.5 5.55337V19.6891C3.5 20.1142 3.98497 20.3505 4.31235 20.085L5.63161 19.0149C5.83843 18.8471 6.13841 18.872 6.3156 19.0716L7.87835 20.8322C8.07697 21.0559 8.42303 21.0559 8.62165 20.8322L10.1284 19.1347C10.327 18.911 10.673 18.911 10.8716 19.1347L12.3293 20.777C12.5445 21.0194 12.9262 20.9957 13.1106 20.7285L14.1943 19.1588C14.3599 18.919 14.6908 18.8708 14.9163 19.0537L16.1877 20.085C16.515 20.3505 17 20.1142 17 19.6891V9.61741" stroke="currentColor" stroke-width="1.5"/>
        <path d="M6.75 8.5H13.75" stroke="currentColor" stroke-width="1.5" stroke-linecap="round"/>
        <path d="M6.75 11.5H13.75" stroke="currentColor" stroke-width="1.5" stroke-linecap="round"/>
        <path d="M6.75 14.5H11.5" stroke="currentColor" stroke-width="1.5" stroke-linecap="round"/>
    </symbol>

    <symbol id="offers" width="21" height="28" viewBox="0 0 21 28" fill="currentColor" xmlns="http://www.w3.org/2000/svg">
        <path fill-rule="evenodd" clip-rule="evenodd" d="M2.29688 3.40494L4.00587 0.310346C4.12456 0.123182 4.29825 0.00314957 4.5625 0H16.4375C16.6666 0.000190109 16.8903 0.124916 16.9941 0.310346L18.7031 3.40494H19.875C20.2022 3.40497 20.5 3.67531 20.5 3.97243V7.37738C20.5 7.67451 20.2022 7.94484 19.875 7.94487H18.8887L17.375 27.4768C17.3506 27.7589 17.0616 28 16.75 28H4.25C3.93841 28.0008 3.64937 27.7589 3.625 27.4768L2.11131 7.94487H1.125C0.79775 7.94484 0.500031 7.67451 0.5 7.37738V3.97243C0.500031 3.67531 0.79775 3.40497 1.125 3.40494H2.29688ZM16.0566 1.13501H4.94336L3.69336 3.40497H17.3066L16.0566 1.13501ZM1.75 4.54004H19.25V6.81H1.75V4.54004ZM17.6289 7.94482H3.37109L3.83984 14.0624H6.57422C7.40737 12.8783 8.84266 12.0762 10.5 12.0762C12.1573 12.0762 13.5926 12.8783 14.4258 14.0624H17.1602L17.6289 7.94482ZM10.5 13.2112C11.8296 13.2112 12.9733 13.8898 13.5469 14.887C13.6507 15.0725 13.8744 15.1972 14.1035 15.1974H17.0625L16.8477 17.4674H14.1035C13.8764 17.4674 13.6533 17.5867 13.5469 17.7688C12.9733 18.7661 11.8296 19.4536 10.5 19.4536C9.17044 19.4536 8.02669 18.7661 7.45312 17.7688C7.34666 17.5867 7.12362 17.4659 6.8965 17.4674H4.15234L3.9375 15.1974H6.8965C7.12559 15.1972 7.34931 15.0725 7.45312 14.887C8.02669 13.8898 9.17044 13.2112 10.5 13.2112ZM6.584 18.6023H4.25L4.82619 26.865H16.1738L16.75 18.6023H14.416C13.5816 19.7805 12.1525 20.5885 10.5 20.5885C8.84753 20.5885 7.41838 19.7805 6.584 18.6023Z"/>
    </symbol>

    <symbol id="beverages" width="27" height="28" viewBox="0 0 27 28" fill="currentColor" xmlns="http://www.w3.org/2000/svg">
        <path fill-rule="evenodd" clip-rule="evenodd" d="M8.86054 2.07153V9.91215L11.3997 12.2426C11.8641 12.6569 12.2667 13.4596 12.2667 14.0292V25.9285C12.2667 27.0679 11.121 28 9.72756 28H3.03913C1.6457 28 0.5 27.0679 0.5 25.9285V14.0292C0.5 13.4596 0.902545 12.6569 1.36702 12.2685L3.90615 9.91215V2.07153H8.86054ZM9.72755 26.9642C10.4397 26.9642 11.0281 26.4981 11.0281 25.9284H11.059V14.055C11.059 13.7443 10.7804 13.2005 10.5326 12.9934L10.5017 12.9675L10.4707 12.9416L7.93158 10.5853L7.62193 10.3004V9.91204V3.10718H5.14473V9.91204V10.3004L4.83508 10.5853L2.32692 12.9157L2.29596 12.9416L2.26499 12.9675C1.98631 13.2005 1.73859 13.7184 1.73859 14.0291V25.9284C1.73859 26.4981 2.32692 26.9642 3.03912 26.9642H9.72755Z"/>
        <path d="M4.2902 1.03575H8.62529C8.96591 1.03575 9.24459 0.802705 9.24459 0.517874C9.24459 0.233043 8.96591 0 8.62529 0H4.2902C3.94958 0 3.6709 0.233043 3.6709 0.517874C3.6709 0.802705 3.94958 1.03575 4.2902 1.03575Z"/>
        <path fill-rule="evenodd" clip-rule="evenodd" d="M4.21565 15.4431H8.55075C9.23198 15.4431 9.78935 15.9092 9.78935 16.4789V21.9165C9.78935 22.4862 9.23198 22.9523 8.55075 22.9523H4.21565C3.53442 22.9523 2.97705 22.4862 2.97705 21.9165V16.4789C2.97705 15.9092 3.53442 15.4431 4.21565 15.4431ZM4.21564 21.9164H8.55073V16.4788H4.21564V21.9164Z"/>
        <path fill-rule="evenodd" clip-rule="evenodd" d="M23.9094 10.8665C23.7546 10.6075 23.3211 10.4263 22.9805 10.4263H17.0042C16.6636 10.4263 16.2301 10.6334 16.0753 10.8665C16.0299 10.9375 15.9804 11.0143 15.9273 11.0965C14.5697 13.2015 10.9337 18.839 16.4469 21.5554C16.6922 21.6807 16.9555 21.786 17.2183 21.8912L17.2184 21.8912C17.5527 22.0249 17.8862 22.1582 18.1809 22.3322C18.6144 22.5911 19.1099 22.9795 19.3576 23.4456V26.6461H17.4997C17.1591 26.6461 16.8804 26.8791 16.8804 27.164C16.8804 27.4488 17.1591 27.6818 17.4997 27.6818H22.4541C22.7947 27.6818 23.0734 27.4488 23.0734 27.164C23.0734 26.8791 22.7947 26.6461 22.4541 26.6461H20.5962V23.4974C20.8439 23.0054 21.3393 22.6429 21.7728 22.384C22.1104 22.1681 22.4989 22.0162 22.8812 21.8666C23.095 21.783 23.3069 21.7001 23.5069 21.6072C29.0355 18.8877 25.4748 13.3167 24.0903 11.1507C24.0247 11.0481 23.964 10.9531 23.9094 10.8665ZM16.7147 12.1102L16.7147 12.1102C16.8681 11.8733 17.0086 11.6564 17.1282 11.4619H22.8877C23.0266 11.6878 23.2321 11.9851 23.463 12.3192L23.463 12.3192C24.1585 13.3255 25.0846 14.6655 25.1171 15.3926C25.1326 15.4832 25.1481 15.5674 25.1636 15.6515C25.1791 15.7357 25.1946 15.8198 25.21 15.9105L25.1428 15.9223C24.4929 16.0375 22.7257 16.3506 20.0079 16.3506C17.3449 16.3506 15.4251 16.014 14.8058 15.8846C14.8164 15.8311 14.8234 15.7744 14.8305 15.7168C14.8439 15.6067 14.8578 15.4932 14.8987 15.3926C15.4191 14.1114 16.1535 12.9771 16.7147 12.1102ZM22.2993 20.9339C22.5161 20.8562 22.7328 20.7786 22.9186 20.675C24.4669 19.9241 25.241 18.6812 25.3339 16.9463C24.5288 17.1017 22.7019 17.3865 20.0698 17.3865C17.5307 17.3865 15.6419 17.1017 14.8058 16.9463C14.8058 18.6812 15.6109 19.8982 17.1591 20.675C17.2189 20.7 17.2819 20.7277 17.3471 20.7563C17.4845 20.8166 17.6314 20.8812 17.7784 20.9339C17.8446 20.9616 17.9127 20.9892 17.9822 21.0175C18.3034 21.1479 18.6552 21.2907 18.9861 21.5036C19.4196 21.7625 19.7602 22.0473 20.0389 22.3322C20.2866 22.0473 20.6582 21.7625 21.0917 21.5036C21.4942 21.2705 21.9277 21.0893 22.2993 20.9339L22.2993 20.9339Z"/>
    </symbol>


    <symbol id="breakfast" width="29" height="28" viewBox="0 0 29 28" fill="currentColor" xmlns="http://www.w3.org/2000/svg">
        <path fill-rule="evenodd" clip-rule="evenodd" d="M14.5024 28C17.9453 27.9959 21.2666 26.7259 23.8341 24.4318V28H27.3335V19.5907C27.3592 19.5324 27.3843 19.474 27.4088 19.4157L28.5 18.3249V4.08345C28.5 2.19521 26.9713 0.00013572 25.0006 0.00013572H23.8341V3.56837C19.1845 -0.593955 12.3417 -1.17539 7.05671 2.14278C1.7717 5.46095 -0.679044 11.8773 1.0479 17.8746C2.77484 23.8719 8.26236 28.0016 14.5024 28ZM25.0006 1.16681C26.2569 1.16681 27.3336 2.77097 27.3336 4.08346V17.8419L26.1671 19.0086V26.8334H25.0006V1.16681ZM23.8341 5.19179C21.4077 2.62596 18.0335 1.17056 14.5024 1.16681C8.64894 1.16689 3.53752 5.12907 2.07717 10.7984C0.616812 16.4676 3.17775 22.4068 8.30248 25.2357C13.4272 28.0646 19.8165 27.066 23.8341 22.8084V5.19179Z" />
        <path fill-rule="evenodd" clip-rule="evenodd" d="M7.53467 16.8525C7.53628 14.9704 9.06306 13.446 10.9448 13.4476C12.8258 13.4511 14.3489 14.977 14.3492 16.8583C14.3476 18.7404 12.8208 20.2648 10.939 20.2632C9.05723 20.2616 7.53306 18.7346 7.53467 16.8525ZM8.8722 17.7144C9.21978 18.5522 10.0379 19.0978 10.9448 19.0966C12.1795 19.0937 13.1798 18.0933 13.1826 16.8584C13.1838 15.9514 12.6383 15.1331 11.8007 14.7855C10.9631 14.4378 9.99862 14.6294 9.35738 15.2707C8.71615 15.9121 8.52462 16.8767 8.8722 17.7144Z"/>
        <path d="M16.8177 16.1917C16.7383 15.8812 16.4232 15.6929 16.1121 15.7701C15.8011 15.8474 15.6106 16.1612 15.6857 16.4729C15.9496 17.745 15.571 19.0655 14.6732 20.0044C14.5216 20.1508 14.4608 20.3677 14.5141 20.5717C14.5675 20.7756 14.7268 20.9349 14.9307 20.9883C15.1346 21.0417 15.3514 20.9809 15.4979 20.8292C16.6815 19.5991 17.1762 17.8609 16.8177 16.1917Z"/>
        <path fill-rule="evenodd" clip-rule="evenodd" d="M21.9134 5.42104L20.7469 4.25438C20.2127 3.71579 19.4409 3.48667 18.6994 3.64656C17.9579 3.80645 17.349 4.33331 17.0842 5.04421C14.4531 4.26991 11.6143 4.69911 9.32956 6.21662C7.04483 7.73413 5.54812 10.1846 5.24103 12.9104C4.06116 14.6101 3.70253 16.7482 4.26324 18.7399C4.82395 20.7316 6.24532 22.3685 8.13854 23.2027C9.2011 24.5221 10.8037 25.2895 12.4976 25.2899C13.042 25.2963 13.5839 25.2166 14.1033 25.0536C15.3084 24.6615 16.3718 23.9237 17.1612 22.932C20.0758 22.0722 22.3868 19.8427 23.3513 16.9606C24.3157 14.0784 23.812 10.9068 22.002 8.46544C22.7784 7.58554 22.7396 6.25426 21.9134 5.42104ZM19.1681 4.76711C19.451 4.76679 19.7223 4.87908 19.9222 5.07919L21.0887 6.24585C21.3152 6.46886 21.4296 6.78181 21.4003 7.09833C21.3711 7.41486 21.2012 7.70151 20.9377 7.87918L20.9032 7.90076C20.7022 8.02654 20.4649 8.08156 20.229 8.0571H20.2057C20.0961 8.04344 19.9891 8.01336 19.8884 7.96785C19.8825 7.96519 19.8769 7.96198 19.8712 7.95873C19.8669 7.95626 19.8626 7.95378 19.8581 7.95151C19.7556 7.90222 19.6619 7.83662 19.5805 7.75726L18.414 6.5906C18.2083 6.38483 18.0964 6.10333 18.1049 5.81244V5.80486C18.117 5.22679 18.59 4.76508 19.1681 4.76711ZM17.2475 10.0876C17.6643 10.5034 18.3389 10.5034 18.7557 10.0876C19.1714 9.67073 19.1714 8.996 18.7557 8.57912L17.5893 7.41246C17.1703 7.01103 16.5073 7.01815 16.097 7.42849C15.6868 7.83883 15.6797 8.50189 16.081 8.92095L17.2475 10.0876ZM13.7172 23.9528C11.9481 24.4819 10.0376 23.8402 8.94637 22.3504L8.85422 22.239L8.72066 22.1807C7.12679 21.5165 5.91435 20.1729 5.41658 18.5192C4.9188 16.8656 5.18806 15.0758 6.15035 13.6419L6.19934 13.5742C6.21866 13.5465 6.23912 13.52 6.25958 13.4934L6.25964 13.4933C6.27189 13.4774 6.28415 13.4615 6.29616 13.4453C6.41515 13.2831 6.54267 13.1273 6.67818 12.9786L6.70443 12.9495L6.73067 12.9203C7.18744 12.4314 7.72509 12.0249 8.31998 11.7187C8.5096 11.6224 8.70429 11.5365 8.90321 11.4614L8.98195 11.4328C9.15692 11.3698 9.33189 11.3162 9.51211 11.2695C9.52936 11.2652 9.5466 11.2607 9.56385 11.2561L9.56389 11.2561C9.58688 11.25 9.60986 11.2439 9.63284 11.2386C9.80314 11.1983 9.97578 11.1686 10.1496 11.1447C10.1687 11.142 10.1877 11.1388 10.2066 11.1356C10.2333 11.1312 10.26 11.1267 10.2872 11.1237C10.5054 11.0974 10.7248 11.084 10.9445 11.0834C12.9152 11.0813 14.7496 12.0889 15.8052 13.7533L15.8845 13.8776L16.0134 13.9493C16.508 14.2235 18.8993 15.7868 17.4581 19.6286L17.4301 19.7342C17.2391 20.5853 16.8682 21.3856 16.3424 22.0815L16.2257 22.2396C15.5713 23.0397 14.7005 23.6344 13.7172 23.9528ZM18.5656 19.9897C18.4685 20.441 18.3255 20.8812 18.1387 21.3034C20.3068 20.2277 21.8851 18.2442 22.4464 15.8895C23.0077 13.5349 22.494 11.0525 21.0443 9.11411C20.9518 9.14537 20.8573 9.17051 20.7615 9.18935C20.6257 9.21513 20.4879 9.22821 20.3497 9.22844H20.3346H20.3118H20.2232C20.2717 10.1499 19.7464 11.0057 18.9029 11.3795C18.0593 11.7533 17.0727 11.5675 16.4228 10.9125L15.2563 9.74585C14.3856 8.87326 14.3856 7.4603 15.2563 6.5877C15.5275 6.3201 15.8632 6.12719 16.2309 6.0277C15.6635 5.90022 15.0838 5.83509 14.5022 5.83345C11.0261 5.82136 7.92685 8.02074 6.79012 11.3063C6.80065 11.2985 6.81144 11.2914 6.82219 11.2843C6.83406 11.2765 6.84586 11.2687 6.85719 11.2602C6.97675 11.1727 7.09748 11.0887 7.22287 11.0088C7.24125 10.9969 7.26006 10.9857 7.27891 10.9744C7.29058 10.9675 7.30226 10.9605 7.31386 10.9533C7.74157 10.6889 8.19685 10.472 8.67163 10.3064C8.68703 10.3013 8.70159 10.2957 8.716 10.2903C8.73106 10.2845 8.74595 10.2788 8.76145 10.2738C8.8845 10.2324 9.01047 10.1979 9.13644 10.1635L9.13646 10.1635L9.13651 10.1635C9.21698 10.1419 9.29745 10.1203 9.37851 10.1011C9.48582 10.0766 9.58614 10.055 9.70278 10.034C9.81943 10.013 9.93608 9.9961 10.0527 9.98093C10.0772 9.97777 10.1015 9.97447 10.1257 9.97118C10.1865 9.96291 10.2471 9.95469 10.3088 9.94885C10.5193 9.92902 10.731 9.91677 10.9445 9.91677C13.2622 9.91474 15.4266 11.0751 16.708 13.0067C17.3752 13.4232 19.7548 15.2117 18.8765 18.9391C18.8686 18.9729 18.862 19.0059 18.8555 19.0389C18.8462 19.0862 18.8368 19.1335 18.8234 19.183C18.8077 19.2414 18.787 19.303 18.7664 19.3643C18.7532 19.4034 18.7401 19.4424 18.7283 19.4805C18.7175 19.516 18.7068 19.5514 18.6962 19.5868C18.6565 19.7191 18.6167 19.8517 18.5656 19.9897Z"/>
    </symbol>

    <symbol id="pasta" width="29" height="28" viewBox="0 0 29 28" fill="currentColor" xmlns="http://www.w3.org/2000/svg">
        <path fill-rule="evenodd" clip-rule="evenodd" d="M23.006 14.8178C26.549 15.8442 28.5 17.4261 28.5 19.2724C28.5 20.7856 27.2207 22.0044 25.2365 22.9102C24.9858 23.9587 23.453 28 14.7117 28C5.85674 28 4.06981 23.8643 3.77667 22.9161C1.78499 22.0097 0.5 20.7889 0.5 19.2724C0.5 16.6909 4.13669 15.3122 6.40542 14.7033C7.30785 12.805 8.50553 11.3589 9.83959 10.6057C10.0895 9.97137 10.9308 8.27759 12.7967 8.27759C13.9792 8.27759 14.7976 8.72826 15.3654 9.32481C16.5483 9.36345 17.4342 9.89972 17.9936 10.9308C18.0662 11.0647 18.1296 11.2065 18.1886 11.3518C20.3353 11.5044 21.8717 12.9513 22.8666 14.8067C22.9123 14.8023 22.9589 14.8037 23.006 14.8178ZM12.9283 11.5846C12.2923 11.1679 11.511 11.1161 10.6758 11.4577C9.09207 12.1057 7.05793 14.3111 6.09894 18.5564C6.02767 18.87 5.76927 19.0512 5.5227 18.9619C5.27522 18.8719 5.13237 18.5445 5.20303 18.231C5.2048 18.2232 5.20676 18.2155 5.20873 18.2079C5.21059 18.2006 5.21246 18.1933 5.21416 18.1859C4.70989 18.481 4.64292 18.6894 4.64226 18.6922C4.8121 19.3836 8.43303 20.7205 14.7493 20.7205C21.0631 20.7205 24.6837 19.3843 24.856 18.6676C24.8553 18.6676 24.8536 18.6648 24.8504 18.6595C24.8216 18.6123 24.6703 18.364 24.0213 18.0447C24.0255 18.0649 24.0302 18.0851 24.0349 18.1053L24.035 18.1054C24.0406 18.1296 24.0463 18.1538 24.0511 18.1779C24.1141 18.4941 23.9634 18.8157 23.7138 18.8958C23.6756 18.9081 23.6371 18.9138 23.5992 18.9138C23.3911 18.9138 23.2013 18.7357 23.1479 18.4679C22.2253 13.8489 19.7932 12.8007 18.5246 12.5743C18.5777 12.888 18.6129 13.2119 18.6319 13.5419C19.5107 13.6211 21.5226 14.2889 22.2608 18.6322C22.3148 18.9515 22.1549 19.2658 21.9035 19.3347C21.8704 19.3436 21.8374 19.3478 21.8046 19.3478C21.5899 19.3478 21.397 19.1585 21.3497 18.8815C20.7497 15.3485 19.2718 14.789 18.6404 14.7164C18.6288 15.0257 18.6083 15.3338 18.5796 15.6366C19.1288 15.9632 20.1063 16.8446 20.4486 19.092C20.4975 19.412 20.3322 19.7221 20.0795 19.7841C20.0498 19.7914 20.0201 19.7948 19.9907 19.7948C19.772 19.7948 19.577 19.5986 19.5339 19.3159C19.314 17.8727 18.7953 17.1877 18.4222 16.871C18.1803 18.4037 17.8295 19.588 17.7973 19.6948C17.7263 19.9299 17.5495 20.0745 17.3621 20.0745C17.3069 20.0745 17.2505 20.0618 17.1959 20.0357C16.9557 19.9191 16.8353 19.5775 16.9269 19.2728C17.3697 17.8008 18.2862 13.5532 17.2256 11.6C16.9839 11.1549 16.65 10.8499 16.2195 10.6752C16.2231 10.684 16.2269 10.6928 16.2308 10.7017C16.2358 10.7133 16.2408 10.7249 16.2454 10.7363C17.2204 13.1793 16.703 17.0687 15.0153 19.9845C14.924 20.1422 14.7826 20.2257 14.6395 20.2257C14.5436 20.2257 14.4472 20.1884 14.3641 20.1111C14.1567 19.9179 14.1121 19.5482 14.2643 19.2851C15.7316 16.7502 16.226 13.3043 15.4141 11.2703C14.9346 10.0686 14.0538 9.45944 12.7967 9.45944C12.1636 9.45944 11.6957 9.73596 11.358 10.0717C12.3049 9.95183 13.1791 10.2532 13.8846 10.9587C16.4771 13.5513 12.8307 19.6706 12.6745 19.9299C12.5826 20.0818 12.4443 20.1615 12.3042 20.1615C12.2056 20.1615 12.1058 20.1218 12.0215 20.0399C11.8171 19.8414 11.7783 19.4705 11.9345 19.2116C11.9538 19.1796 13.0662 17.285 13.601 15.3558C12.8015 15.3904 11.5356 16.0452 10.7283 19.4532C10.6676 19.709 10.4826 19.8741 10.2825 19.8741C10.2379 19.8741 10.1927 19.866 10.1481 19.8491C9.90155 19.7552 9.76203 19.4255 9.83604 19.1131C10.9033 14.6075 12.8621 14.1179 13.8416 14.1816C13.9109 13.6136 13.8934 13.0784 13.7451 12.625C12.8403 12.6822 9.54968 13.2917 8.38451 19.0685C8.33052 19.3355 8.14127 19.5128 7.93352 19.5128C7.89531 19.5128 7.85649 19.5071 7.81767 19.4944C7.56836 19.4136 7.41824 19.0916 7.48193 18.7753C8.55977 13.4318 11.368 11.9781 12.9283 11.5846ZM14.7117 26.8182C8.53549 26.8182 6.08827 24.7554 5.16008 23.459C7.78588 24.348 11.1924 24.8103 14.5 24.8103C17.8638 24.8103 21.3311 24.3329 23.9742 23.414C23.2098 24.6837 20.9915 26.8182 14.7117 26.8182ZM1.43172 19.2724C1.43172 21.3329 6.79867 23.6285 14.5 23.6285C22.2014 23.6285 27.5683 21.3329 27.5683 19.2724C27.5683 18.4467 26.4814 17.1781 23.4849 16.1834C23.5426 16.3389 23.5966 16.4952 23.648 16.6526C23.6763 16.6563 23.7047 16.6625 23.733 16.6732C24.6146 17.0083 25.7868 17.5811 25.7868 18.6795C25.7868 21.2236 18.8488 21.9023 14.7493 21.9023C10.6498 21.9023 3.71182 21.2236 3.71182 18.6795C3.71182 17.6278 4.78218 17.0669 5.6088 16.7347C5.67881 16.5138 5.75205 16.2964 5.8291 16.0835C2.6083 17.0841 1.43172 18.3981 1.43172 19.2724Z"/>
        <path d="M14.1383 6.38941C13.9751 6.59271 14.0042 6.89269 14.2032 7.05926C14.2899 7.13178 14.3946 7.16711 14.4983 7.16711C14.6332 7.16711 14.7667 7.10761 14.8589 6.99279C15.3851 6.33673 16.0629 4.691 14.8622 3.15776C13.8802 1.90358 14.7309 0.917322 14.8337 0.806532C15.0117 0.618267 15.0075 0.318282 14.824 0.135285C14.6399 -0.0480218 14.3454 -0.0447679 14.1653 0.143342C13.6221 0.711702 12.9169 2.19737 14.1349 3.75246C15.1588 5.06024 14.1789 6.3375 14.1383 6.38941Z"/>
        <path d="M9.46344 7.13821C9.30027 7.34166 9.32938 7.64149 9.52864 7.80806C9.61508 7.88058 9.71971 7.9159 9.82344 7.9159C9.9584 7.9159 10.0921 7.8564 10.184 7.74158C10.538 7.30013 10.9941 6.19301 10.1874 5.16258C9.69757 4.53689 10.0776 4.05747 10.1604 3.96605C10.3369 3.77763 10.332 3.47889 10.1492 3.29635C9.96507 3.11289 9.67028 3.1163 9.49043 3.30441C9.11951 3.69256 8.63577 4.70486 9.4601 5.75728C9.98388 6.42652 9.51591 7.07018 9.46344 7.13821Z"/>
        <path d="M19.2979 7.13821C19.1347 7.3415 19.1639 7.64149 19.3628 7.80806C19.4496 7.88058 19.5542 7.9159 19.6579 7.9159C19.7926 7.9159 19.9263 7.8564 20.0185 7.74158C20.3728 7.30013 20.8289 6.19301 20.0219 5.16258C19.532 4.53689 19.9121 4.05747 19.9949 3.96605C20.1714 3.77763 20.1665 3.47889 19.9836 3.29635C19.7995 3.11289 19.5048 3.1163 19.3249 3.30441C18.954 3.69256 18.4702 4.70486 19.2946 5.75744C19.8187 6.42652 19.3507 7.07003 19.2979 7.13821Z"/>
    </symbol>


    <symbol id="lasagna" width="33" height="32" viewBox="0 0 33 32" fill="currentColor" xmlns="http://www.w3.org/2000/svg">
        <path fill-rule="evenodd" clip-rule="evenodd" d="M29.5314 13.4419C30.1263 13.9429 30.483 14.7856 30.4816 15.6872C30.4858 16.5754 30.1444 17.4099 29.568 17.9209C29.7721 18.4726 29.8781 19.0739 29.8786 19.6826V23.3038C29.8743 23.9009 29.7683 24.4898 29.568 25.0309C30.3442 25.7041 30.6826 26.9355 30.4029 28.0695C30.1232 29.2035 29.2905 29.9762 28.3482 29.9762C27.052 30.0097 25.768 29.6545 24.6021 28.94C23.3346 28.1803 21.8631 28.1803 20.5956 28.94C19.4298 29.6551 18.1457 30.0104 16.8495 29.9762C16.6946 29.98 16.5857 29.9834 16.5116 29.9863C16.4373 29.9834 16.3275 29.98 16.1708 29.9762C14.8747 30.0077 13.5911 29.6526 12.4247 28.94C11.8057 28.537 11.1156 28.3389 10.4191 28.3642C9.72426 28.3399 9.03582 28.538 8.41817 28.94C7.25174 29.6526 5.96813 30.0077 4.67207 29.9762C3.72975 29.9762 2.89709 29.2035 2.61739 28.0695C2.33769 26.9355 2.67604 25.7041 3.45231 25.0309C3.25191 24.4898 3.14598 23.9009 3.14165 23.3038V19.6653C3.14217 19.0566 3.24819 18.4554 3.45231 17.9037C2.86307 17.4002 2.5102 16.5613 2.5102 15.6642C2.5102 14.767 2.86307 13.9282 3.45231 13.4247C3.23632 12.8609 3.1239 12.243 3.12338 11.617V10.2636C3.12183 9.66822 3.22153 9.07929 3.41576 8.53651C2.64714 7.85829 2.317 6.62967 2.60051 5.50248C2.88402 4.3753 3.71549 3.61065 4.6538 3.61422C5.35022 3.63955 6.04033 3.44145 6.65933 3.03852C7.82364 2.32401 9.10612 1.96881 10.4009 2.00225C11.6971 1.96811 12.9812 2.32333 14.147 3.03852C14.766 3.44145 15.4561 3.63955 16.1525 3.61422C16.8474 3.63857 17.5358 3.4405 18.1535 3.03852C18.2986 2.94987 18.4206 2.87222 18.5254 2.80557C18.8419 2.60423 19.0004 2.50337 19.159 2.5033C19.2742 2.50325 19.3895 2.55644 19.5655 2.66301C21.7619 1.67102 24.1914 1.79619 26.3289 3.03852C26.9466 3.4405 27.635 3.63857 28.3299 3.61422C29.2682 3.61065 30.0997 4.3753 30.3832 5.50248C30.6667 6.62967 30.3366 7.85829 29.568 8.53651C29.7622 9.07929 29.8619 9.66822 29.8603 10.2636V11.6342C29.8598 12.2603 29.7474 12.8781 29.5314 13.4419ZM16.5099 30C16.6271 30 16.7448 29.9954 16.5116 29.9863C16.2765 29.9955 16.3929 30 16.5099 30ZM28.3299 17.2473C28.43 17.2466 28.5296 17.2311 28.6269 17.2013C28.781 17.1502 28.9264 17.0644 29.0746 16.9595C29.4005 16.6629 29.5913 16.1848 29.5858 15.6782C29.5804 15.1716 29.3793 14.7002 29.0471 14.4149C28.9095 14.2959 28.7541 14.2136 28.5903 14.1731C28.5048 14.1496 28.4174 14.138 28.3299 14.1385H27.9325C27.2453 14.0972 26.5728 13.8736 25.9589 13.4822C25.5902 13.2552 25.2082 13.0685 24.8172 12.9232C24.9463 12.7824 25.0157 12.5702 24.9996 12.3517V11.7556C25.17 11.8663 25.3247 12.0136 25.4566 12.1393C25.7234 12.3935 25.8972 12.559 25.9198 12.1536C26.0577 12.2255 26.1941 12.3018 26.3289 12.3826C26.9455 12.7885 27.6347 12.9868 28.3299 12.9583C28.4449 12.9619 28.5595 12.9773 28.6725 13.0044C28.8497 12.5757 28.9436 12.1002 28.9466 11.6169V10.2636C28.9471 9.83256 28.8739 9.40646 28.7319 9.01431C28.6028 9.04942 28.4711 9.06679 28.339 9.06612C27.5224 9.08228 26.7083 8.94846 25.9223 8.66888V12.054C25.9224 12.0905 25.9215 12.1236 25.9198 12.1536C25.6193 11.997 25.3121 11.8617 24.9996 11.7485V7.87444C25 7.68496 25.0744 7.50788 25.1985 7.40092C25.3227 7.29396 25.4806 7.27082 25.6209 7.33904C26.3925 7.70499 27.2086 7.89977 28.033 7.91474H28.33C28.4428 7.91144 28.5548 7.89016 28.6634 7.85142C28.8165 7.79771 28.9595 7.70568 29.0837 7.58083C29.5026 7.17477 29.6696 6.47759 29.4991 5.84725C29.3286 5.21692 28.8584 4.79351 28.33 4.79442C27.5079 4.82312 26.6931 4.59362 25.9589 4.1266C23.8177 2.87562 19.5764 3.47899 18.5281 4.1266C17.7921 4.59273 16.976 4.82215 16.1525 4.79442C15.3291 4.82215 14.513 4.59273 13.777 4.1266C12.7274 3.47809 11.5696 3.15629 10.4009 3.1882C9.2322 3.15629 8.07447 3.47809 7.02485 4.1266C6.29071 4.59362 5.4759 4.82312 4.65384 4.79442C3.97009 4.79442 3.4158 5.49293 3.4158 6.35458C3.41606 6.82914 3.5896 7.27715 3.88635 7.56932C4.01061 7.69417 4.15355 7.78619 4.30664 7.8399C4.41524 7.87865 4.5273 7.89992 4.64014 7.90323H4.93708C5.84609 7.89233 6.74463 7.65765 7.5822 7.21238L8.0162 6.9821C8.24462 6.85544 8.45476 6.7403 8.67862 6.63668C9.22816 6.40077 9.80693 6.29156 10.3872 6.31428C10.969 6.29125 11.5493 6.40046 12.1004 6.63668C12.3059 6.7403 12.5344 6.85544 12.7628 6.9821L13.2196 7.21238C14.1392 7.70367 15.1311 7.94308 16.1297 7.91474C17.1388 7.946 18.1417 7.70659 19.0718 7.21238L19.2271 7.21814C19.3477 7.28254 19.4257 7.33958 19.4719 7.38929C19.4376 7.39456 19.4039 7.40473 19.3713 7.41964C18.6618 7.72707 19.782 7.72277 19.4719 7.38929C19.4885 7.38674 19.5053 7.38533 19.522 7.38509C19.6173 7.38587 19.7099 7.42411 19.787 7.49448C19.9068 7.60195 19.9782 7.7755 19.9789 7.9608V13.4247C20.0044 13.7711 20.235 14.2836 20.5111 14.2836C20.7872 14.2836 21.0178 14.0186 21.0433 13.6722V11.5475C21.0132 10.872 21.282 10.231 21.7418 9.88186C21.9922 9.69171 22.1828 9.74401 22.43 9.81184C22.6367 9.86855 22.8829 9.93611 23.2367 9.88186C23.6894 9.81245 23.8619 10.6395 23.9211 11.4755C23.8759 11.4604 23.832 11.4571 23.7896 11.4634C23.5334 11.4252 23.2762 11.3994 23.0185 11.386C22.9967 11.1904 22.9073 11.0136 22.7706 10.9069C22.5981 10.7723 22.3802 10.7723 22.2078 10.9069C22.0735 11.0116 21.9849 11.1839 21.9611 11.3752H21.9569V11.4171C21.9539 11.4581 21.9539 11.4998 21.9569 11.5418V11.4171C21.958 11.4031 21.9594 11.3891 21.9611 11.3752H22.5874C22.7312 11.3749 22.8749 11.3785 23.0185 11.386C23.0242 11.4369 23.0253 11.4892 23.0214 11.5418V12.0772C23.0221 12.4098 23.0946 12.285 23.2234 12.0634C23.3572 11.8333 23.5517 11.4987 23.7896 11.4634C23.8336 11.47 23.8777 11.4769 23.9217 11.4843C23.9489 11.8737 23.9516 12.2644 23.9468 12.5666C23.9413 12.537 23.9374 12.5069 23.9351 12.4763V12.3517C23.932 12.3936 23.9321 12.4353 23.9351 12.4763V12.669C23.4898 12.5768 23.0371 12.5365 22.5828 12.5496H21.9524V13.6664C21.9536 14.3448 21.6514 14.9661 21.1712 15.2727C21.0178 15.3748 20.8503 15.4393 20.6778 15.4627C20.5671 15.4972 20.4518 15.5011 20.3397 15.4742C20.1672 15.4508 19.9998 15.3863 19.8464 15.2842C19.424 15.013 19.3926 14.8964 19.2801 14.4774C19.2644 14.4191 19.2471 14.3549 19.227 14.2836C19.1788 14.0936 19.1952 13.8799 19.2094 13.695V13.695C19.241 13.2849 19.2616 13.0161 18.5418 13.4592C17.8065 13.9281 16.9899 14.1577 16.1662 14.127C15.3425 14.1577 14.5259 13.9281 13.7906 13.4592C12.7406 12.8127 11.5829 12.4929 10.4146 12.5266C9.24632 12.494 8.08881 12.8137 7.03851 13.4592C6.42488 13.8514 5.75223 14.075 5.06495 14.1155H4.6675C4.57996 14.115 4.49264 14.1266 4.4071 14.15C4.24381 14.1925 4.08864 14.2746 3.95026 14.3918C3.62046 14.6797 3.42181 15.1512 3.41727 15.6567C3.41273 16.1623 3.60287 16.6392 3.92742 16.9365C4.05726 17.0529 4.20275 17.1387 4.35685 17.1898C4.46526 17.2152 4.5758 17.2229 4.68578 17.2128H5.05125C5.66956 17.1962 6.28366 17.0801 6.87862 16.8674C7.0198 16.8153 7.17223 16.8521 7.28815 16.9662C7.40407 17.0804 7.46929 17.2579 7.46337 17.4431V21.7148C7.48887 22.0612 7.71952 22.3262 7.99559 22.3262C8.27167 22.3262 8.50232 22.0612 8.52781 21.7148V19.0148C8.57095 18.0482 9.20549 17.2922 9.97372 17.2922C10.7419 17.2922 11.3765 18.0482 11.4196 19.0148V19.5502C11.4451 19.8966 11.6758 20.1615 11.9518 20.1615C12.2279 20.1615 12.4586 19.8966 12.4841 19.5502V18.9745C12.5272 18.0079 13.1617 17.2519 13.93 17.2519C14.6982 17.2519 15.3327 18.0079 15.3759 18.9745V26.2456C15.3711 26.2915 15.3711 26.3379 15.3759 26.3838C15.4225 26.6935 15.6374 26.9177 15.8875 26.9177C16.1377 26.9177 16.3525 26.6935 16.3992 26.3838C16.4014 26.3397 16.4014 26.2955 16.3992 26.2514V17.7655C16.399 17.6758 16.3534 17.5967 16.3143 17.529C16.2213 17.368 16.1653 17.2709 16.8449 17.2473C17.8088 17.2782 18.7676 17.0628 19.6636 16.6141C19.8217 16.5353 19.971 16.4528 20.1161 16.3726L20.221 16.3147L20.7235 16.0384C20.8697 15.9693 21.022 15.9059 21.1803 15.8484C22.1017 15.5798 23.0595 15.5798 23.9808 15.8484C24.1452 15.9059 24.264 15.952 24.4376 16.0384C24.6112 16.1247 24.7802 16.2168 24.9538 16.3147C25.1274 16.4126 25.3148 16.5162 25.5158 16.6141C26.2957 17.0066 27.1249 17.221 27.9644 17.2473H28.3299ZM23.9447 12.671C23.9421 12.7857 23.9385 12.8837 23.9351 12.9589V12.669L23.9447 12.671ZM23.9755 12.6775C24.0179 12.8031 24.0904 12.912 24.186 12.9866C24.3584 13.1211 24.5763 13.1211 24.7487 12.9866C24.7731 12.9676 24.796 12.9463 24.8172 12.9232C24.5407 12.8204 24.2596 12.7384 23.9755 12.6775ZM23.9755 12.6775L23.9447 12.671C23.9455 12.6376 23.9462 12.6027 23.9468 12.5666C23.9538 12.6047 23.9634 12.6418 23.9755 12.6775ZM23.9217 11.4843C23.9215 11.4813 23.9213 11.4784 23.9211 11.4755C23.9333 11.4796 23.9455 11.4845 23.9579 11.4904C23.9458 11.4883 23.9338 11.4863 23.9217 11.4843ZM24.9741 11.7394L24.9996 11.7485V11.7556C24.9911 11.7501 24.9826 11.7447 24.9741 11.7394ZM24.5016 11.5881C24.6603 11.633 24.8178 11.6834 24.9741 11.7394C24.8265 11.6475 24.6675 11.5848 24.5016 11.5881ZM28.9466 23.3211V19.6826C28.9415 19.2288 28.8556 18.7822 28.6953 18.3758C28.575 18.4059 28.4526 18.4214 28.3299 18.4218C27.0341 18.4564 25.7502 18.1033 24.5838 17.3913C23.3163 16.6317 22.7705 16.3147 20.5773 17.3913C19.2035 18.0656 18.7521 18.103 18.3046 18.1401C18.0376 18.1622 17.772 18.1842 17.3128 18.3412V24.4322C17.6008 24.3227 17.8818 24.1861 18.1534 24.0235C18.3013 23.9334 18.4252 23.8547 18.5312 23.7873L18.5313 23.7873C19.0723 23.4436 19.1484 23.3953 19.5647 23.6448C21.7619 22.6578 24.1898 22.7821 26.3289 24.0177C26.9454 24.4236 27.6347 24.6219 28.3299 24.5934C28.454 24.597 28.5776 24.6124 28.6999 24.6395C28.8592 24.2287 28.9435 23.7782 28.9466 23.3211ZM28.3299 28.8708C28.6591 28.8709 28.9747 28.7057 29.207 28.4119C29.4393 28.118 29.5692 27.7197 29.5634 27.2934C29.5595 26.579 29.1723 25.9584 28.6223 25.7851C28.5253 25.753 28.4256 25.7356 28.3254 25.7333H27.9873C27.2814 25.7023 26.5893 25.4783 25.9589 25.0769C23.8163 23.8338 19.5608 24.4268 18.5053 25.0769C18.1181 25.3144 17.7103 25.4941 17.2901 25.6124V26.2687C17.2923 26.3127 17.2923 26.357 17.2901 26.4011C17.2789 26.5987 17.2435 26.7929 17.185 26.9768C17.1135 27.1933 17.0078 27.3891 16.8743 27.5525C16.6078 27.903 16.2408 28.1041 15.8556 28.1109C15.4718 28.1092 15.1041 27.9168 14.8323 27.5755C14.7017 27.4103 14.5978 27.2148 14.5262 26.9998C14.4634 26.8177 14.4278 26.6225 14.4211 26.4241C14.4189 26.3781 14.4189 26.3319 14.4211 26.2859V25.4512C14.2064 25.3533 14.0008 25.2439 13.777 25.1172C12.7269 24.4707 11.5692 24.1509 10.4009 24.1846C9.2341 24.1518 8.07804 24.4716 7.0294 25.1172C6.39432 25.5193 5.69764 25.7432 4.98732 25.7736H4.65383C4.55356 25.7759 4.45388 25.7933 4.35688 25.8254C4.20168 25.8718 4.05457 25.9537 3.92288 26.0672C3.48947 26.4653 3.30875 27.1698 3.47522 27.8122C3.6417 28.4547 4.11751 28.8891 4.65383 28.8881C5.82254 28.92 6.98027 28.5982 8.02989 27.9497C8.28887 27.799 8.55424 27.6664 8.82479 27.5525C9.33543 27.3574 9.86746 27.2661 10.4009 27.2819C10.9359 27.2655 11.4695 27.3568 11.9816 27.5525C12.2472 27.6613 12.508 27.7882 12.7628 27.9324C13.8165 28.5837 14.9792 28.9055 16.1525 28.8708C16.5121 28.8807 16.6042 28.889 16.5933 28.895C16.3707 28.902 16.3653 28.905 16.4183 28.9047C16.4712 28.9044 16.5826 28.9008 16.5933 28.895C16.6549 28.893 16.7331 28.8907 16.8312 28.8881C17.9999 28.92 19.1577 28.5982 20.2073 27.9497C20.4666 27.8 20.7319 27.6674 21.0022 27.5525C22.035 27.1916 23.1262 27.1916 24.159 27.5525C24.4295 27.6598 24.6949 27.7866 24.9539 27.9324C26.0041 28.5786 27.1614 28.9003 28.3299 28.8708ZM4.03706 23.3211V19.6826C4.03805 19.2171 4.12402 18.7581 4.28832 18.3412C4.40869 18.3713 4.53108 18.3868 4.6538 18.3873C5.27635 18.3942 5.89784 18.3209 6.50857 18.1685V21.6745C6.50514 22.5781 7.02845 23.3479 7.73748 23.4823C7.36624 23.6384 7.00179 23.819 6.64563 24.0234C6.02725 24.4285 5.33669 24.6268 4.64009 24.5991C4.516 24.6028 4.39231 24.6182 4.27005 24.6452C4.11271 24.2322 4.03299 23.7791 4.03706 23.3211ZM9.40042 21.686C9.39687 22.2702 9.17297 22.8174 8.79739 23.1598C9.32591 23.0305 9.86256 22.9611 10.4009 22.9526C11.6966 22.9193 12.9802 23.2724 14.147 23.9831L14.4211 24.1328V18.9514C14.3956 18.605 14.165 18.34 13.8889 18.34C13.6128 18.34 13.3822 18.605 13.3567 18.9514V19.5271C13.3135 20.4937 12.679 21.2496 11.9108 21.2496C11.1425 21.2496 10.508 20.4937 10.4649 19.5271V18.9859C10.4394 18.6395 10.2087 18.3746 9.93265 18.3746C9.65657 18.3746 9.42592 18.6395 9.40042 18.9859V21.686ZM4.26087 8.99702C4.11381 9.39357 4.03741 9.82587 4.03702 10.2636V11.6342C4.03935 12.1194 4.13331 12.597 4.31112 13.0274C4.42416 13.0004 4.53874 12.985 4.65375 12.9813C5.35035 13.009 6.04091 12.8107 6.65929 12.4056C7.8241 11.6935 9.10648 11.3403 10.4008 11.3751C11.6967 11.3396 12.9807 11.6928 14.1469 12.4056C14.7653 12.8107 15.4559 13.009 16.1525 12.9813C16.8477 13.0098 17.5369 12.8115 18.1534 12.4056C18.2986 12.3172 18.4206 12.2398 18.5254 12.1734C18.8089 11.9935 18.9656 11.8942 19.1091 11.8754C19.1873 11.1148 19.2919 9.46335 18.8585 8.54489C17.9877 8.90107 17.0731 9.07249 16.1525 9.04884C14.8568 9.08213 13.5732 8.72903 12.4064 8.01832C11.7884 7.61175 11.0975 7.41343 10.4008 7.44262C9.70562 7.41416 9.01637 7.61247 8.39986 8.01832C7.23304 8.72903 5.94945 9.08213 4.65375 9.04884C4.52169 9.04951 4.38996 9.03214 4.26087 8.99702Z"/>
    </symbol>

    <symbol id="misc" width="33" height="32" viewBox="0 0 33 32" fill="currentColor" xmlns="http://www.w3.org/2000/svg">
        <path fill-rule="evenodd" clip-rule="evenodd" d="M2.5 16C2.5 8.28037 8.78037 2 16.5 2C24.2196 2 30.5 8.28037 30.5 16C30.5 23.7196 24.2196 30 16.5 30C8.78037 30 2.5 23.7196 2.5 16ZM3.67429 16C3.67429 23.0722 9.4278 28.8257 16.5 28.8257C23.5722 28.8257 29.3257 23.0718 29.3257 16C29.3257 8.9278 23.5722 3.17429 16.5 3.17429C9.4278 3.17429 3.67429 8.9278 3.67429 16Z"/>
        <path fill-rule="evenodd" clip-rule="evenodd" d="M16.3074 11.6229C18.6294 11.6229 20.5181 13.5119 20.5181 15.8336C20.5181 18.1553 18.6291 20.0443 16.3074 20.0443C13.9857 20.0443 12.0967 18.1556 12.0967 15.8336C12.0967 13.5116 13.9854 11.6229 16.3074 11.6229ZM13.1367 15.8338C13.1367 17.5817 14.5592 19.0045 16.3075 19.0045C18.0561 19.0045 19.4782 17.582 19.4782 15.8338C19.4782 14.0855 18.0557 12.6631 16.3075 12.6631C14.5592 12.6631 13.1367 14.0858 13.1367 15.8338Z"/>
        <path d="M16.815 8.70246L18.0565 9.02556C18.0859 9.03319 18.115 9.03665 18.1442 9.03665C18.2981 9.03665 18.4388 8.93335 18.4794 8.77734C18.5276 8.59187 18.4163 8.40258 18.2312 8.3544L16.9897 8.03129C16.8046 7.98276 16.615 8.0937 16.5668 8.27951C16.5189 8.46499 16.6299 8.65427 16.815 8.70246Z"/>
        <path d="M12.3696 9.7159C12.485 9.56337 12.4552 9.346 12.3024 9.23021C12.1495 9.11442 11.9321 9.14458 11.8167 9.29746L11.2304 10.0719C11.115 10.2245 11.1448 10.4418 11.2977 10.5576C11.3604 10.6051 11.4339 10.628 11.5067 10.628C11.6118 10.628 11.7154 10.5805 11.7834 10.4907L12.3696 9.7159Z"/>
        <path d="M14.9226 10.5995C14.9874 10.6533 15.0658 10.6793 15.1435 10.6793C15.2433 10.6793 15.3421 10.6363 15.4107 10.5538C15.5331 10.4064 15.5123 10.1877 15.365 10.0657L14.8072 9.60353C14.6595 9.48081 14.4414 9.50196 14.3191 9.64929C14.1967 9.79663 14.2175 10.0154 14.3648 10.1374L14.9226 10.5995Z"/>
        <path d="M20.6152 9.32962C20.6412 9.32962 20.6676 9.32685 20.6943 9.32061L21.675 9.09215C21.8615 9.04881 21.9776 8.8623 21.934 8.67579C21.8906 8.48928 21.7041 8.37383 21.518 8.41648L20.5372 8.64494C20.3507 8.68827 20.2346 8.87478 20.2782 9.06129C20.3153 9.22146 20.4578 9.32962 20.6152 9.32962Z" />
        <path d="M23.8566 13.35L23.0783 12.9731C22.907 12.8896 22.6987 12.9617 22.6151 13.134C22.5319 13.3063 22.604 13.5136 22.7763 13.5972L23.5546 13.974C23.6032 13.9976 23.6545 14.0087 23.7054 14.0087C23.8341 14.0087 23.9582 13.9366 24.0178 13.8131C24.101 13.6408 24.0289 13.4335 23.8566 13.35Z"/>
        <path d="M18.3247 11.5313C18.3733 11.5545 18.4242 11.5656 18.4745 11.5656C18.6038 11.5656 18.7276 11.4931 18.7872 11.369L19.2126 10.4826C19.2954 10.3099 19.2226 10.103 19.05 10.0201C18.8763 9.93621 18.67 10.0101 18.5875 10.1827L18.1621 11.0692C18.0793 11.2414 18.1521 11.4488 18.3247 11.5313Z" />
        <path d="M19.6598 21.4397C19.5204 21.3086 19.301 21.3159 19.1699 21.4556C19.0389 21.595 19.0462 21.8144 19.1859 21.9455L19.821 22.5411C19.8875 22.6038 19.9728 22.635 20.0581 22.635C20.1507 22.635 20.2425 22.5983 20.3108 22.5255C20.4419 22.3861 20.4346 22.1666 20.2949 22.0356L19.6598 21.4397Z" />
        <path d="M23.2354 16.1556C23.1723 15.9747 22.975 15.8783 22.7944 15.9414L21.9204 16.244C21.7398 16.3068 21.6434 16.504 21.7062 16.685C21.7561 16.8285 21.8903 16.9183 22.0338 16.9183C22.0712 16.9183 22.1097 16.9121 22.1472 16.8992L23.0211 16.5966C23.2017 16.5338 23.2981 16.3366 23.2354 16.1556Z" />
        <path d="M14.8534 22.9259L14.054 23.2556C13.8768 23.3287 13.7926 23.5315 13.8657 23.7087C13.9208 23.8425 14.0502 23.9229 14.1864 23.9229C14.2304 23.9229 14.2752 23.9146 14.3185 23.8969L15.1179 23.5672C15.2951 23.4941 15.3793 23.2913 15.3062 23.1141C15.233 22.937 15.0299 22.8534 14.8534 22.9259Z" />
        <path d="M20.8413 19.0143L20.0686 19.4199C19.899 19.509 19.8335 19.7184 19.9226 19.8882C19.9847 20.0065 20.105 20.0737 20.2301 20.0737C20.2842 20.0737 20.3393 20.0609 20.391 20.0342L21.1637 19.6286C21.3332 19.5395 21.3988 19.3301 21.3097 19.1602C21.2206 18.9904 21.0115 18.9259 20.8413 19.0143Z" />
        <path d="M23.4018 20.8694L22.7469 21.3388C22.5913 21.4501 22.5552 21.6668 22.6672 21.8224C22.7348 21.9171 22.8412 21.9673 22.9491 21.9673C23.0187 21.9673 23.0895 21.9462 23.1505 21.9022L23.8053 21.4328C23.961 21.3215 23.9971 21.1048 23.8851 20.9492C23.7741 20.7932 23.5575 20.7574 23.4018 20.8694Z"/>
        <path d="M21.6744 11.2062C21.4993 11.1268 21.2944 11.2048 21.2157 11.3792L20.6545 12.6206C20.5754 12.795 20.6531 13.0006 20.8275 13.0793C20.8739 13.1004 20.9221 13.1101 20.97 13.1101C21.102 13.1101 21.2282 13.0342 21.2861 12.9063L21.8474 11.6649C21.9264 11.4905 21.8488 11.2849 21.6744 11.2062Z" />
        <path d="M9.70747 13.5725C9.82603 13.5725 9.94182 13.5115 10.0063 13.4019C10.1037 13.2369 10.0489 13.0244 9.88393 12.927L8.82934 12.3043C8.66467 12.2073 8.45181 12.2617 8.35439 12.4267C8.25698 12.5917 8.31175 12.8043 8.47677 12.9017L9.53136 13.5243C9.58717 13.5569 9.64784 13.5725 9.70747 13.5725Z" />
        <path d="M12.8408 12.1575C12.7379 11.9959 12.5233 11.9488 12.3621 12.0514L11.6829 12.4847C11.5214 12.5877 11.4739 12.8019 11.5769 12.9635C11.6431 13.0671 11.7551 13.1237 11.8695 13.1237C11.9332 13.1237 11.9977 13.106 12.0556 13.0692L12.7348 12.6359C12.8963 12.5333 12.9435 12.319 12.8408 12.1575Z" />
        <path d="M16.4653 21.5204L15.5785 21.2105C15.3978 21.1474 15.1999 21.2427 15.1371 21.4234C15.074 21.604 15.1694 21.8019 15.35 21.865L16.2368 22.175C16.2746 22.1881 16.3131 22.1944 16.3512 22.1944C16.4947 22.1944 16.6285 22.1049 16.6785 21.9621C16.7416 21.7815 16.6459 21.5835 16.4653 21.5204Z" />
        <path d="M10.1095 19.5288L9.2816 19.9587C9.11173 20.0471 9.04552 20.2561 9.13392 20.4263C9.19563 20.5452 9.31662 20.6132 9.44177 20.6132C9.4955 20.6132 9.54993 20.6007 9.60124 20.5744L10.4291 20.1445C10.599 20.0561 10.6652 19.847 10.5768 19.6768C10.4887 19.5066 10.2793 19.4407 10.1095 19.5288Z" />
        <path d="M10.4293 15.4917C10.2591 15.4029 10.0497 15.4692 9.96163 15.639L9.31508 16.8808C9.22668 17.0507 9.29289 17.2601 9.46242 17.3485C9.51338 17.3752 9.5685 17.3877 9.62224 17.3877C9.74739 17.3877 9.86838 17.3197 9.93008 17.2012L10.5766 15.9594C10.6654 15.7898 10.5992 15.5804 10.4293 15.4917Z" />
        <path d="M12.5039 19.9161H12.5036C12.3118 19.9165 12.1569 20.0718 12.1572 20.2635L12.1586 21.1559C12.159 21.3472 12.3139 21.5018 12.5053 21.5018H12.5056C12.6973 21.5015 12.8523 21.3462 12.852 21.1545L12.8506 20.2621C12.8502 20.0708 12.6953 19.9161 12.5039 19.9161Z" />
        <path d="M23.5814 18.3824L22.8669 18.4636C22.6766 18.485 22.5403 18.657 22.5618 18.847C22.5819 19.0238 22.7317 19.1545 22.9057 19.1545C22.9185 19.1545 22.9317 19.1538 22.9452 19.1521L23.6597 19.0709C23.85 19.0494 23.9863 18.8775 23.9648 18.6875C23.9433 18.4975 23.7762 18.3575 23.5814 18.3824Z" />
        <path fill-rule="evenodd" clip-rule="evenodd" d="M27.2674 14.7663L27.2865 15.0117C27.2872 15.0252 27.2879 15.0388 27.2868 15.053V15.1757C27.2868 15.1878 27.2865 15.2003 27.2855 15.2128L27.2761 15.3449C27.2751 15.3591 27.2733 15.373 27.2712 15.3872L27.2342 15.6312C27.2324 15.6444 27.2296 15.6576 27.2265 15.6704L27.1981 15.7931C27.1959 15.8043 27.1928 15.8151 27.1896 15.8263L27.1887 15.8292L27.1135 16.0732C27.1083 16.0899 27.1028 16.1062 27.0958 16.1221L26.9579 16.4632C26.9488 16.4854 26.9388 16.5062 26.9273 16.527L26.677 16.9597C26.6712 16.9697 26.6649 16.9798 26.6583 16.9892L25.6346 18.4615L25.5275 18.9018L25.5212 19.0841L25.5399 19.5747L25.5874 20.3588C25.5878 20.3713 25.5878 20.3835 25.5874 20.3959L25.5684 20.916C25.568 20.9281 25.567 20.9402 25.5656 20.952L25.5372 21.2165C25.5358 21.2297 25.5337 21.2425 25.5313 21.2554L25.4228 21.7788L25.3524 22.042C25.3486 22.0558 25.3448 22.0693 25.3396 22.0829L25.2546 22.319C25.2494 22.3328 25.2442 22.3463 25.238 22.3599L25.134 22.5862L25.134 22.5863C25.1277 22.5991 25.1215 22.6119 25.1142 22.6244L24.9215 22.9617C24.9145 22.9745 24.9069 22.9863 24.8989 22.9977L24.6615 23.3174L24.4718 23.5292C24.4597 23.5427 24.4472 23.5552 24.4337 23.5673L24.2444 23.7379C24.2312 23.7504 24.217 23.7615 24.2025 23.7722L23.7743 24.0735C23.7598 24.0832 23.7449 24.0929 23.7293 24.1012L23.5025 24.2239C23.496 24.2274 23.4894 24.2306 23.4828 24.2338C23.4788 24.2357 23.4749 24.2376 23.471 24.2395L23.2446 24.3432C23.2293 24.3501 23.2141 24.356 23.1985 24.3616L22.6903 24.5276C22.6722 24.5332 22.6542 24.5377 22.6358 24.5412L22.1127 24.6302C22.1002 24.632 22.0881 24.6334 22.0756 24.6344L20.3606 24.7623L19.7557 24.9145L19.5671 24.9932L19.1868 25.2054L17.8937 26.0319L17.6434 26.1574C17.6305 26.1639 17.6177 26.1695 17.6045 26.175L17.1154 26.3609C17.1018 26.3661 17.0883 26.3699 17.0745 26.3737L16.829 26.4396C16.8169 26.4427 16.8047 26.4454 16.7926 26.4479L16.5472 26.4954C16.5333 26.4981 16.5194 26.5002 16.5056 26.502L16.2508 26.53C16.2386 26.5314 16.2261 26.5321 16.214 26.5328L15.6936 26.5425C15.6742 26.5425 15.6555 26.5415 15.6364 26.5394L15.114 26.4704L14.8259 26.4077L14.8228 26.4069C14.8085 26.4033 14.794 26.3997 14.7802 26.3952L14.5441 26.3196L14.544 26.3196C14.5322 26.3158 14.5205 26.312 14.5091 26.3071L14.273 26.2128L14.273 26.2128C14.2622 26.2083 14.2515 26.2038 14.2411 26.1986L13.7575 25.9469L13.5259 25.7999C13.5137 25.7923 13.502 25.784 13.4902 25.7753L13.2919 25.6242C13.277 25.6131 13.2628 25.6009 13.2492 25.5881L12.8904 25.2484C12.8804 25.239 12.871 25.229 12.8617 25.2189L12.8616 25.2189L12.5216 24.8303L11.4268 23.4536L11.1297 23.1721L10.9778 23.0643L10.6055 22.8705L10.1832 22.7069L8.72927 22.2444C8.71783 22.2403 8.70673 22.2361 8.69564 22.2312L8.22589 22.0201C8.21237 22.0139 8.19955 22.0073 8.18672 22L7.9697 21.8773C7.95895 21.8711 7.94786 21.8645 7.93746 21.8575L7.72911 21.7216C7.70484 21.706 7.68196 21.689 7.66046 21.6696L7.50307 21.5421C7.47465 21.5213 7.44795 21.497 7.42403 21.4706L7.28259 21.3299C7.26595 21.3146 7.25 21.2987 7.23544 21.2814L6.8957 20.8733C6.8794 20.8529 6.86415 20.8307 6.85098 20.8081L6.52337 20.2115C6.51817 20.2015 6.51331 20.1907 6.50881 20.18L6.40862 19.93C6.40446 19.9186 6.40064 19.9075 6.39718 19.8964L6.35939 19.7737L6.35823 19.7696C6.35516 19.7589 6.35215 19.7484 6.34968 19.7376L6.29283 19.4918C6.29005 19.4793 6.28763 19.4665 6.28555 19.4537L6.24811 19.2093C6.24603 19.1961 6.24464 19.1829 6.2436 19.1698L6.22453 18.924C6.22349 18.9108 6.22314 18.8973 6.22314 18.8841V18.6296C6.22314 18.6165 6.22349 18.6029 6.22453 18.5898L6.27341 18.0722C6.27515 18.0583 6.27723 18.0448 6.27965 18.0313L6.3736 17.5341L6.83052 15.6045L6.85514 15.1847L6.77991 14.5361L6.49078 13.314L6.4159 12.7698C6.41416 12.7569 6.41312 12.7438 6.41278 12.7306L6.40307 12.3329C6.40307 12.3194 6.40342 12.3063 6.40446 12.2927L6.42352 12.0473C6.4256 12.0216 6.42942 11.996 6.43531 11.9707L6.47518 11.7627C6.47864 11.7412 6.48315 11.72 6.48905 11.6992L6.66412 11.1643C6.67001 11.1487 6.67694 11.1334 6.68422 11.1189L6.86727 10.7618C6.87524 10.7469 6.88391 10.732 6.89327 10.7178L7.20112 10.2713C7.21187 10.2567 7.22296 10.2428 7.23509 10.2293L7.4899 9.94608C7.50238 9.93256 7.51521 9.91973 7.52873 9.90725L7.84455 9.64205C7.85495 9.63373 7.8657 9.62575 7.87644 9.61847L8.324 9.33038L8.80519 9.08286L9.90554 8.53823L10.265 8.29417L10.4332 8.16555L10.9456 7.67951L11.451 7.13696C11.5016 7.08184 11.562 7.04163 11.6268 7.01389L11.8143 6.77538C11.8216 6.76637 11.8289 6.75735 11.8369 6.74869L12.1815 6.36596C12.1905 6.35556 12.2002 6.34585 12.2102 6.33614L12.3922 6.1635C12.403 6.15344 12.4141 6.14374 12.4255 6.13472L12.6165 5.98184C12.6315 5.97005 12.6467 5.95896 12.6627 5.9489L13.1501 5.67364L13.4122 5.55751C13.4288 5.55023 13.4458 5.54364 13.4631 5.53809L13.7027 5.46148C13.7166 5.45732 13.7304 5.4535 13.7446 5.45004L14.2744 5.34014C14.2861 5.33806 14.2976 5.33633 14.3094 5.33494L14.5583 5.30617C14.5718 5.30443 14.5853 5.30339 14.5988 5.30305L14.8575 5.29369C14.8703 5.29334 14.8828 5.29334 14.8956 5.29369L15.4323 5.32315C15.452 5.32454 15.4721 5.32731 15.4919 5.33113L15.9901 5.42681C16.0105 5.43062 16.0306 5.43582 16.0504 5.44206L16.5468 5.6109L17.0405 5.81197L18.1918 6.30321L18.4244 6.3871C18.4608 6.39993 18.4941 6.41726 18.5256 6.43702L18.8786 6.51017L19.3383 6.53583L19.7914 6.51849L20.0458 6.49943L21.0564 6.40513C21.0692 6.40409 21.0817 6.40374 21.0945 6.40374H21.34C21.3531 6.40374 21.3663 6.40409 21.3795 6.40513L21.6249 6.42385C21.6385 6.42489 21.6516 6.42628 21.6648 6.42836L21.9089 6.46615C21.9252 6.46857 21.9414 6.47169 21.9574 6.47585L22.3439 6.59095C22.3616 6.59684 22.3793 6.60412 22.3966 6.61175L22.762 6.78925C22.7776 6.79722 22.7929 6.80589 22.8078 6.81525L23.1468 7.05099C23.1611 7.06139 23.1749 7.07283 23.1881 7.08462L23.5954 7.48225L23.8561 7.82685C23.8676 7.84245 23.8783 7.85909 23.888 7.87608L24.1324 8.32641C24.1404 8.34166 24.1473 8.35726 24.1539 8.37321L24.4268 9.11406L24.9346 10.8076L25.1038 11.2125L25.3091 11.5907L25.5687 11.9332L26.5564 13.1109L26.7162 13.3435C26.7235 13.3536 26.7297 13.364 26.736 13.3744L26.9974 13.8566C27.0029 13.8677 27.0078 13.8788 27.0123 13.8899L27.1991 14.4078C27.2023 14.4196 27.2057 14.4317 27.2085 14.4439L27.2369 14.5666C27.2397 14.5794 27.2425 14.5926 27.2446 14.6058L27.2633 14.7285C27.265 14.741 27.2667 14.7534 27.2674 14.7663ZM25.741 15.7114L25.9452 15.1214L25.9819 14.7383L25.9334 14.3629L25.793 13.9722L25.5812 13.5811L25.3073 13.205L24.9932 12.8285L24.3401 12.0602L24.1813 11.8391C24.1709 11.8242 24.1608 11.8089 24.1518 11.7933L23.9074 11.343C23.9025 11.3338 23.8984 11.3249 23.8942 11.3158C23.8933 11.3139 23.8924 11.312 23.8915 11.31L23.6054 10.5893L23.0105 8.64445L22.9322 8.44996L22.6729 7.99998L22.3955 7.67479L22.0093 7.37457L21.636 7.20574L21.2595 7.12566L20.8476 7.11006L20.3571 7.14646L19.3465 7.24075C19.3337 7.24179 19.3212 7.24214 19.3084 7.24214L18.7797 7.23243L18.5131 7.21233C18.4999 7.21129 18.4871 7.2099 18.4743 7.20782L18.2288 7.17003C18.216 7.1683 18.2032 7.16553 18.1907 7.16275L17.7002 7.04974C17.5917 7.02478 17.4998 6.96688 17.4308 6.88992L17.081 6.75749L15.9124 6.24961L15.4981 6.10886L15.0599 6.02461L14.6116 6L14.1811 6.03259L13.7345 6.12515L13.5411 6.18721L12.9802 6.47772L12.8266 6.60044L12.6754 6.74362L12.3561 7.09862L12.0511 7.48724C11.9866 7.5694 11.901 7.62383 11.8087 7.65503L11.0474 8.4406L10.8488 8.61983C10.8381 8.62919 10.8273 8.63821 10.8162 8.64687L10.4068 8.94883L9.93531 9.23345L8.5701 9.90253L7.98144 10.3279L7.76199 10.572L7.51481 10.9308L7.29398 11.4186L7.22014 11.7111C7.21806 11.7236 7.21563 11.7361 7.21286 11.7486L7.17888 12.02L7.18721 12.3376L7.24822 12.7897L7.53388 13.9881C7.537 14.0006 7.53943 14.0131 7.54116 14.0259L7.61015 14.5359L7.63095 14.8018C7.63234 14.8215 7.63268 14.8413 7.63199 14.8614L7.60252 15.3717C7.60148 15.3859 7.59975 15.4001 7.59732 15.4143L7.50961 15.9118L7.37857 16.4398L7.12654 17.4199L7.0156 18.1084L7 18.5313L7.09568 19.1525L7.1983 19.4295L7.46559 19.9163L7.80949 20.308C7.82301 20.3202 7.83549 20.3326 7.84762 20.3462L7.95717 20.4446C7.97139 20.4554 7.98491 20.4661 7.99808 20.4779L8.12774 20.5767L8.41583 20.75L8.83461 20.9383L9.27593 21.0849L10.5077 21.4798L10.7583 21.5834C10.7694 21.5883 10.7802 21.5932 10.7909 21.5984L11.2412 21.8334C11.261 21.8441 11.2801 21.8563 11.2984 21.8695L11.7276 22.2061C11.7377 22.2151 11.7474 22.2248 11.7567 22.2348L12.1055 22.6124L13.3567 24.1735L13.6805 24.4803L13.8392 24.6013L14.222 24.8301L14.6144 25.0013L14.8103 25.0641L15.2544 25.1469L15.4579 25.1688L15.8912 25.1604L16.3142 25.0967L16.5208 25.0412L16.935 24.8838L17.3362 24.6699L17.7418 24.4134L18.6012 23.8538L18.8428 23.7269C18.8563 23.72 18.8698 23.7138 18.8841 23.7079L19.1104 23.6139C19.1219 23.6091 19.1333 23.6049 19.1451 23.6008L19.3725 23.5248C19.3864 23.5203 19.4003 23.5165 19.4145 23.513L19.9199 23.4038C19.9316 23.4016 19.9437 23.3999 19.9554 23.3983L19.9577 23.3979L20.7256 23.329L21.7164 23.2638L22.1473 23.191L22.571 23.0527L22.9471 22.8648L23.4536 22.4789L23.7712 22.0847L23.9348 21.7984L24.0204 21.6112L24.0904 21.4163L24.2035 20.9639L24.2666 20.5243L24.2842 20.0425L24.2756 19.797L24.2184 18.6266C24.2184 18.6135 24.2191 18.5999 24.2201 18.5868L24.2295 18.4641C24.2305 18.4488 24.2326 18.4335 24.235 18.4183L24.2718 18.1884C24.2738 18.1732 24.277 18.1579 24.2808 18.143L24.3089 18.0297C24.3123 18.0161 24.3161 18.0026 24.3206 17.9895L24.3962 17.7634C24.4038 17.7405 24.4132 17.718 24.4239 17.6965L24.6191 17.3363L24.7623 17.111C24.7706 17.0978 24.7796 17.0853 24.789 17.0728L25.5264 16.0827L25.741 15.7114Z"/>
    </symbol>

    <symbol id="search" width="24" height="24" viewBox="0 0 24 24" fill="none" xmlns="http://www.w3.org/2000/svg">
        <path d="M17.3556 17.3658C18.8279 15.8961 19.7388 13.8641 19.7388 11.6194C19.7388 7.13518 16.1036 3.5 11.6194 3.5C7.13518 3.5 3.5 7.13518 3.5 11.6194C3.5 16.1036 7.13518 19.7388 11.6194 19.7388C13.8589 19.7388 15.8866 18.8321 17.3556 17.3658ZM17.3556 17.3658L20.5 20.5" stroke="#19191C" stroke-width="1.5" stroke-linecap="round"/>
    </symbol>

    <symbol id="minus" width="20" height="20" viewBox="0 0 20 20" fill="none" xmlns="http://www.w3.org/2000/svg">
        <path d="M4.16675 10H15.8334" stroke="#9C9C9C" stroke-width="1.5" stroke-linecap="round"/>
    </symbol>

    <symbol id="plus" width="20" height="20" viewBox="0 0 20 20" fill="none" xmlns="http://www.w3.org/2000/svg">
        <path d="M4.16675 10H15.8334M10.0001 4.16669V15.8334" stroke="white" stroke-width="1.5" stroke-linecap="round"/>
    </symbol>

    <svg xmlns="http://www.w3.org/2000/svg" width="33" height="32" fill="currentColor" viewBox="0 0 33 32">
        <path fill-rule="evenodd" d="m8.297 5.405 1.709-3.095a.627.627 0 0 1 .556-.31h11.876a.65.65 0 0 1 .556.31l1.71 3.095h1.171c.327 0 .625.27.625.567v3.405c0 .298-.298.568-.625.568h-.986l-1.514 19.532c-.024.282-.313.523-.625.523h-12.5c-.312 0-.6-.241-.625-.523L8.111 9.945h-.986c-.327 0-.625-.27-.625-.568V5.972c0-.297.298-.567.625-.567h1.172Zm13.76-2.27H10.943l-1.25 2.27h13.614l-1.25-2.27ZM7.75 6.54h17.5v2.27H7.75V6.54Zm15.879 3.405H9.37l.469 6.117h2.734c.833-1.184 2.269-1.986 3.926-1.986s3.093.802 3.926 1.986h2.734l.469-6.117ZM16.5 15.21c1.33 0 2.473.679 3.047 1.676.104.186.327.31.556.31h2.96l-.215 2.27h-2.744c-.228 0-.45.12-.557.302-.574.997-1.717 1.685-3.047 1.685s-2.473-.688-3.047-1.685a.65.65 0 0 0-.556-.302h-2.745l-.214-2.27h2.958c.23 0 .453-.124.557-.31.574-.997 1.717-1.676 3.047-1.676Zm-3.916 5.391H10.25l.576 8.263h11.348l.576-8.263h-2.334c-.834 1.178-2.264 1.986-3.916 1.986-1.652 0-3.082-.808-3.916-1.986Z" clip-rule="evenodd"/>
    </svg>


    <symbol id="chevron-right" width="24" height="24" viewBox="0 0 24 24" fill="none" xmlns="http://www.w3.org/2000/svg">
        <path d="M7.75 20.5L16.1086 12.1414C16.1867 12.0633 16.1867 11.9367 16.1086 11.8586L7.75 3.5" stroke="#19191C" stroke-width="1.5" stroke-linecap="round"/>
    </symbol>

    <symbol id="x" width="24" height="24" viewBox="0 0 24 24" fill="none" xmlns="http://www.w3.org/2000/svg">
        <path d="M5 5L19 19M19 5L5 19" stroke="#282930" stroke-width="1.5" stroke-linecap="round"/>
    </symbol>


    <symbol id="clipboard" width="24" height="24" viewBox="0 0 24 24" fill="none" xmlns="http://www.w3.org/2000/svg">
        <path d="M15.7454 4.50126C16.849 4.50126 17.4009 4.50126 17.8279 4.74202C18.1269 4.91057 18.3845 5.16724 18.5597 5.47099C18.81 5.90485 18.835 6.47099 18.8851 7.60325C19.0487 11.3011 19.0341 14.009 18.8636 17.7532C18.8169 18.7779 18.7936 19.2902 18.5691 19.7046C18.4149 19.9894 18.1743 20.2504 17.9075 20.4225C17.5194 20.6727 17.0414 20.7161 16.0852 20.8029C13.1731 21.0673 10.8447 21.0651 7.91978 20.7999C6.96461 20.7134 6.48703 20.6701 6.09939 20.4206C5.83297 20.2492 5.59239 19.9888 5.43791 19.7048C5.21315 19.2916 5.18868 18.7815 5.13973 17.7612C4.96088 14.0326 4.95209 11.3236 5.12278 7.59999C5.17467 6.46809 5.20061 5.90214 5.45104 5.46906C5.62645 5.16572 5.88383 4.90977 6.18267 4.7415C6.60933 4.50126 7.16069 4.50126 8.2634 4.50126M9.60724 6.00251H14.4045C15.1994 6.00251 15.8437 5.33037 15.8437 4.50125C15.8437 3.67213 15.1994 3 14.4045 3H9.60724C8.8124 3 8.16805 3.67213 8.16805 4.50125C8.16805 5.33037 8.8124 6.00251 9.60724 6.00251Z" stroke="#FF5C00" stroke-width="1.5"/>
    </symbol>

    <symbol id="x-little" width="10" height="10" viewBox="0 0 10 10" fill="none" xmlns="http://www.w3.org/2000/svg">
        <path d="M2.08334 2.08333L7.91668 7.91666M7.91668 2.08333L2.08334 7.91666" stroke="white" stroke-width="1.5" stroke-linecap="round"/>
    </symbol>

    <symbol id="info" width="20" height="20" viewBox="0 0 20 20" fill="none" xmlns="http://www.w3.org/2000/svg">
        <circle cx="10" cy="10" r="7.5" stroke="#EA4F3B" stroke-width="1.5"/>
        <path d="M10 13.3333V8.75" stroke="#EA4F3B" stroke-width="1.5" stroke-linecap="round"/>
        <path d="M10 6.66669H10.0083" stroke="#EA4F3B" stroke-width="1.6" stroke-linecap="round"/>
    </symbol>





</svg>